<svg width="49" height="48" viewBox="0 0 49 48" fill="none" xmlns="http://www.w3.org/2000/svg">
<rect x="0.328125" width="48" height="48" rx="8" fill="#718298" fill-opacity="0.2"/>
<path d="M39.2176 22.25H37.5769C37.0847 21.1562 36.3738 20.2266 35.5535 19.4062L36.5926 15.25H34.8426C33.2019 15.25 31.7801 16.0156 30.8504 17.1641C30.4129 17.1094 29.9754 17 29.5926 17H22.5926C18.3269 17 14.8269 20.0078 14.0066 24H11.6551C10.8347 24 10.1785 23.2891 10.3426 22.4688C10.4519 21.8125 11.0535 21.375 11.7097 21.375H11.7644C11.9285 21.375 12.0926 21.2656 12.0926 21.0469V19.9531C12.0926 19.7891 11.9285 19.625 11.7644 19.625C10.1785 19.625 8.81131 20.7734 8.59256 22.3047C8.37381 24.1641 9.79568 25.75 11.6551 25.75H13.8426C13.8426 28.6484 15.2097 31.1641 17.3426 32.75V37.125C17.3426 37.6172 17.7254 38 18.2176 38H21.7176C22.1551 38 22.5926 37.6172 22.5926 37.125V34.5H29.5926V37.125C29.5926 37.6172 29.9754 38 30.4676 38H33.9676C34.4051 38 34.8426 37.6172 34.8426 37.125V32.75C35.4441 32.2578 36.0457 31.6562 36.5379 31H39.2176C39.6551 31 40.0926 30.6172 40.0926 30.125V23.125C40.0926 22.6875 39.6551 22.25 39.2176 22.25ZM32.2176 25.75C31.7254 25.75 31.3426 25.3672 31.3426 24.875C31.3426 24.4375 31.7254 24 32.2176 24C32.6551 24 33.0926 24.4375 33.0926 24.875C33.0926 25.3672 32.6551 25.75 32.2176 25.75ZM22.5926 15.25H29.5926C29.866 15.25 30.1394 15.3047 30.4129 15.3047C30.4129 15.3047 30.4676 15.3047 30.4676 15.25C30.4676 12.3516 28.116 10 25.2176 10C22.3191 10 19.9676 12.3516 19.9676 15.25C19.9676 15.4141 19.9676 15.5234 19.9676 15.6328C20.7879 15.4141 21.6629 15.25 22.5926 15.25Z" fill="#CDD7E3"/>
</svg>
