<svg width="48" height="48" viewBox="0 0 48 48" fill="none" xmlns="http://www.w3.org/2000/svg">
<rect width="48" height="48" rx="8" fill="#718298" fill-opacity="0.2"/>
<path d="M27.3086 20.6953C27.0273 20.4141 26.6992 20.1328 26.3711 19.8984C26.043 19.6641 25.668 19.7109 25.3867 19.9453L24.4023 20.9297C24.0273 21.3516 23.8398 21.8672 23.8398 22.3359C23.8398 22.6172 23.9805 22.8047 24.168 22.9453C24.3086 23.0391 24.4961 23.1797 24.6836 23.3203C25.9961 24.6797 25.9961 26.7891 24.6836 28.1016L21.4961 31.2422C20.1836 32.6016 18.0273 32.6016 16.7148 31.2422C15.4023 29.9297 15.4492 27.7734 16.7617 26.4609L17.3711 25.8516C17.6055 25.6641 17.6523 25.3359 17.5586 25.0547C17.2773 24.2578 17.1367 23.4141 17.0898 22.6172C17.0898 21.9609 16.293 21.6328 15.8242 22.1016L14.0898 23.8359C11.3242 26.6016 11.3242 31.1484 14.0898 33.9141C16.8555 36.6797 21.4023 36.6797 24.168 33.9141L27.3086 30.7734C27.3086 30.7734 27.3086 30.7734 27.3086 30.7266C30.0742 28.0078 30.1211 23.5078 27.3086 20.6953ZM33.918 14.0859C31.1523 11.3203 26.6055 11.3203 23.8398 14.0859L20.6992 17.2266C20.6992 17.2266 20.6992 17.2266 20.6992 17.2734C17.9336 19.9922 17.8867 24.4922 20.6992 27.3047C20.9805 27.5859 21.3086 27.8672 21.6367 28.1016C21.9648 28.3359 22.3398 28.2891 22.6211 28.0547L23.6055 27.0703C23.9805 26.6484 24.168 26.1328 24.168 25.6641C24.168 25.3828 24.0273 25.1953 23.8398 25.0547C23.6992 24.9609 23.5117 24.8203 23.3242 24.6797C22.0117 23.3203 22.0117 21.2109 23.3242 19.8984L26.5117 16.7578C27.8242 15.3984 29.9805 15.3984 31.293 16.7578C32.6055 18.0703 32.5586 20.2266 31.2461 21.5391L30.6367 22.1484C30.4023 22.3359 30.3555 22.6641 30.4492 22.9453C30.7305 23.7422 30.8711 24.5859 30.918 25.3828C30.918 26.0391 31.7148 26.3672 32.1836 25.8984L33.918 24.1641C36.6836 21.3984 36.6836 16.8516 33.918 14.0859Z" fill="#CDD7E3"/>
</svg>
