<svg width="49" height="48" viewBox="0 0 49 48" fill="none" xmlns="http://www.w3.org/2000/svg">
<rect x="0.664062" width="48" height="48" rx="8" fill="#718298" fill-opacity="0.2"/>
<path d="M33.4094 29.7305L29.6594 25.4648H31.1125C31.5344 25.4648 31.9094 25.2305 32.05 24.8555C32.2375 24.4805 32.1906 24.0586 31.9094 23.7305L28.2531 19.4648H29.6125C30.0344 19.4648 30.4094 19.2305 30.5969 18.8555C30.7375 18.4805 30.6906 18.0117 30.3625 17.7305L25.2063 12.1992C24.925 11.918 24.4094 11.918 24.1281 12.1992L18.9719 17.7305C18.6437 18.0117 18.5969 18.4805 18.7375 18.8555C18.925 19.2305 19.3 19.4648 19.7219 19.4648H21.0813L17.425 23.7305C17.1437 24.0586 17.0969 24.4805 17.2844 24.8555C17.425 25.2305 17.8 25.4648 18.2219 25.4648H19.675L15.925 29.7305C15.6438 30.0586 15.5969 30.4805 15.7844 30.8555C15.925 31.2305 16.3469 31.4648 16.7687 31.4648H23.1906V32.6367L21.7375 34.8867C21.5031 35.4023 21.8781 36.0117 22.4406 36.0117H26.8938C27.4563 36.0117 27.8313 35.4023 27.5969 34.8867L26.1906 32.6367V31.4648H32.5656C32.9875 31.4648 33.4094 31.2305 33.55 30.8555C33.7375 30.4805 33.6906 30.0586 33.4094 29.7305Z" fill="#CDD7E3"/>
</svg>
