<svg width="48" height="48" viewBox="0 0 48 48" fill="none" xmlns="http://www.w3.org/2000/svg">
<rect width="48" height="48" rx="8" fill="#718298" fill-opacity="0.2"/>
<path d="M30.6006 19.5229H11.8278C9.31754 19.5229 7.28125 21.5579 7.28125 24.0695V24.2599C7.28125 26.7702 9.31615 28.8065 11.8278 28.8065H30.6006C33.1109 28.8065 35.1472 26.7716 35.1472 24.2599V24.0695C35.1472 21.5579 33.1123 19.5229 30.6006 19.5229Z" fill="#718298"/>
<path opacity="0.1" d="M30.5045 19.5203H22.0007C21.2974 20.8657 20.8984 22.3961 20.8984 24.0182C20.8984 25.7584 21.3557 27.3916 22.1564 28.8038H30.5031C33.0676 28.8038 35.1455 26.7258 35.1455 24.1613C35.1469 21.5983 33.0689 19.5203 30.5045 19.5203Z" fill="black"/>
<path opacity="0.85" d="M31.1938 33.7353C36.5605 33.7353 40.911 29.3848 40.911 24.0181C40.911 18.6515 36.5605 14.3009 31.1938 14.3009C25.8271 14.3009 21.4766 18.6515 21.4766 24.0181C21.4766 29.3848 25.8271 33.7353 31.1938 33.7353Z" fill="#CDD7E3"/>
</svg>
