<svg width="48" height="48" viewBox="0 0 48 48" fill="none" xmlns="http://www.w3.org/2000/svg">
<rect width="48" height="48" rx="8" fill="#718298" fill-opacity="0.2"/>
<path d="M33.8438 15.8965L24.8438 12.1465C24.5625 12.0527 24.2812 12.0059 24 12.0059C23.6719 12.0059 23.3906 12.0527 23.1094 12.1465L14.1094 15.8965C13.2656 16.2715 12.75 17.0684 12.75 17.959C12.75 27.2871 18.0938 33.709 23.1094 35.8184C23.6719 36.0527 24.2812 36.0527 24.8438 35.8184C28.875 34.1309 35.25 28.3652 35.25 17.959C35.25 17.0684 34.6875 16.2715 33.8438 15.8965ZM31.6406 21.2402L23.0156 29.8652C22.7344 30.1934 22.2188 30.1934 21.9375 29.8652L17.0625 24.9902C16.7812 24.709 16.7812 24.2402 17.0625 23.959L18.1406 22.8809C18.4219 22.5996 18.8906 22.5996 19.1719 22.8809L22.5 26.1621L29.5312 19.1309C29.8125 18.8496 30.2812 18.8496 30.5625 19.1309L31.6406 20.209C31.9219 20.4902 31.9219 20.959 31.6406 21.2402Z" fill="#CDD7E3"/>
</svg>
