<svg width="48" height="48" viewBox="0 0 48 48" fill="none" xmlns="http://www.w3.org/2000/svg">
<rect width="48" height="48" rx="8" fill="#718298" fill-opacity="0.2"/>
<path d="M37.5625 23.999C37.5078 16.5068 31.4375 10.4365 24 10.4365C20.3359 10.4365 17.0547 11.9131 14.5938 14.21L11.9141 11.5303C11.3672 10.9834 10.4375 11.3662 10.4375 12.1318V20.0615C10.4375 20.5537 10.8203 20.9365 11.3125 20.9365H19.2422C20.0078 20.9365 20.3906 20.0068 19.8438 19.46L17.0547 16.6709C18.8594 14.9756 21.3203 13.9365 24 13.9365C29.5234 13.9365 34.0625 18.4756 34.0625 23.999C34.0625 29.5771 29.5234 34.0615 24 34.0615C21.5938 34.0615 19.4609 33.2959 17.7109 31.9287C17.2188 31.4912 16.4531 31.5459 15.9609 32.0381L15.3594 32.6396C14.8125 33.1865 14.8672 34.1162 15.4688 34.6084C17.7656 36.4678 20.7734 37.6162 24 37.5615C31.4375 37.5615 37.5625 31.4912 37.5625 23.999ZM27.6641 28.3193L28.1562 27.6084C28.6484 27.0615 28.5391 26.2412 27.9375 25.8037L25.75 24.0537V18.3115C25.75 17.6006 25.1484 16.999 24.4375 16.999H23.5625C22.7969 16.999 22.25 17.6006 22.25 18.3115V25.749L25.8047 28.5381C26.3516 28.9756 27.1719 28.8662 27.6641 28.3193Z" fill="#CDD7E3"/>
</svg>
