<svg width="48" height="48" viewBox="0 0 48 48" fill="none" xmlns="http://www.w3.org/2000/svg">
<rect width="48" height="48" rx="8" fill="#18A2D9" fill-opacity="0.2"/>
<path d="M24.5469 10.5C20.1719 10.5 17.3281 12.3047 15.0859 15.5312C14.7031 16.0781 14.8125 16.8984 15.4141 17.2812L17.7656 19.0859C18.3125 19.5234 19.1328 19.4141 19.5703 18.8672C20.9375 17.1719 21.9766 16.1875 24.1094 16.1875C25.8047 16.1875 27.8828 17.2266 27.8828 18.8672C27.8828 20.125 26.8438 20.7266 25.2031 21.6562C23.2344 22.75 20.6641 24.1172 20.6641 27.5078V28C20.6641 28.7656 21.2656 29.3125 21.9766 29.3125H25.9688C26.6797 29.3125 27.2812 28.7656 27.2812 28V27.7266C27.2812 25.375 34.1172 25.2656 34.1172 18.9219C34.1172 14.1641 29.1406 10.5 24.5469 10.5ZM24 30.9531C21.8672 30.9531 20.1719 32.6484 20.1719 34.7266C20.1719 36.8047 21.8672 38.5 24 38.5C26.0781 38.5 27.7734 36.8047 27.7734 34.7266C27.7734 32.6484 26.0781 30.9531 24 30.9531Z" fill="#18A2D9"/>
</svg>
