<svg width="48" height="48" viewBox="0 0 48 48" fill="none" xmlns="http://www.w3.org/2000/svg">
<rect width="48" height="48" rx="8" fill="#718298" fill-opacity="0.2"/>
<path d="M35.4844 14.5459L24.9844 10.1709C24.6562 10.0615 24.3281 10.0068 24 10.0068C23.6172 10.0068 23.2891 10.0615 22.9609 10.1709L12.4609 14.5459C11.4766 14.9834 10.875 15.9131 10.875 16.9521C10.875 27.835 17.1094 35.3271 22.9609 37.7881C23.6172 38.0615 24.3281 38.0615 24.9844 37.7881C29.6875 35.8193 37.125 29.0928 37.125 16.9521C37.125 15.9131 36.4688 14.9834 35.4844 14.5459ZM24 34.3975V13.5615L33.5703 17.5537C33.4062 25.8115 29.0859 31.8271 24 34.3975Z" fill="#CDD7E3"/>
</svg>
