<svg width="155" height="40" fill="none" xmlns="http://www.w3.org/2000/svg"><mask id="a" style="mask-type:luminance" maskUnits="userSpaceOnUse" x="4" y="4" width="32" height="32"><path fill-rule="evenodd" clip-rule="evenodd" d="M4 4h32v31.854H4V4z" fill="#fff"/></mask><g mask="url(#a)" fill-rule="evenodd" clip-rule="evenodd" fill="#18A2D9"><path d="M11.973 4c-4.423 0-8.01 3.57-8.01 7.973H36V4H11.973M27.991 15.959H3.965c0 4.403 3.585 7.972 8.008 7.972H36c0-4.403-3.585-7.972-8.009-7.972M11.973 35.89h8.009v-7.973H3.964c0 4.404 3.586 7.973 8.009 7.973"/></g><path d="M60.067 7.834c-.043-.469-.233-.833-.57-1.093-.331-.264-.807-.397-1.425-.397-.409 0-.75.054-1.022.16-.273.107-.478.254-.614.441a1.065 1.065 0 0 0-.21.633.94.94 0 0 0 .114.518c.09.149.217.281.384.396.17.111.375.209.613.294.239.085.507.16.806.224l1.125.256c.648.14 1.218.328 1.713.562.498.235.916.514 1.253.838.34.323.598.696.773 1.118.175.422.264.895.269 1.42-.005.826-.214 1.535-.627 2.128-.413.592-1.008 1.046-1.783 1.361-.772.316-1.703.473-2.794.473-1.095 0-2.05-.164-2.863-.492-.814-.328-1.447-.827-1.899-1.496-.451-.669-.684-1.515-.696-2.537h3.03c.025.421.138.773.338 1.054.2.282.475.495.825.64.353.144.763.217 1.227.217.426 0 .788-.058 1.087-.173.302-.115.535-.275.697-.48.161-.204.245-.438.249-.702a.969.969 0 0 0-.23-.633c-.15-.18-.38-.332-.69-.46a7.088 7.088 0 0 0-1.177-.365l-1.368-.32c-1.133-.26-2.026-.679-2.678-1.258-.652-.584-.976-1.373-.972-2.366-.004-.81.214-1.519.652-2.128.44-.61 1.047-1.085 1.822-1.426.776-.34 1.66-.51 2.653-.51 1.014 0 1.894.172 2.64.517.75.34 1.331.82 1.745 1.438.413.618.624 1.334.633 2.148h-3.03zm10.348-.652v2.301h-6.193V7.182h6.194zM65.52 4.83h3.126v9.083c0 .191.03.347.09.466a.559.559 0 0 0 .274.25c.12.046.262.07.428.07.12 0 .246-.01.378-.032.136-.026.238-.047.306-.064l.474 2.256c-.15.043-.36.096-.633.16-.269.064-.59.105-.966.122-.733.034-1.361-.051-1.885-.256-.52-.209-.919-.533-1.196-.972-.272-.439-.404-.99-.396-1.655V4.83zM72.01 17V7.182h3.036v1.79h.103c.179-.648.47-1.13.876-1.445.404-.32.875-.48 1.412-.48.145 0 .294.011.448.033.153.017.296.044.428.083v2.716a2.99 2.99 0 0 0-.588-.121 5.21 5.21 0 0 0-.64-.045c-.37 0-.705.083-1.003.25-.294.161-.526.39-.697.683-.166.29-.249.631-.249 1.023V17H72.01zm11.656.185c-1.027 0-1.913-.202-2.659-.607a4.2 4.2 0 0 1-1.713-1.745c-.396-.758-.594-1.66-.594-2.704 0-1.014.2-1.9.6-2.659.401-.763.966-1.355 1.694-1.777.729-.426 1.588-.639 2.576-.639.7 0 1.338.109 1.918.326.58.217 1.08.539 1.502.965a4.4 4.4 0 0 1 .984 1.579c.235.622.352 1.336.352 2.141v.78h-8.533V11.03h5.625a1.76 1.76 0 0 0-.237-.889 1.606 1.606 0 0 0-.633-.607 1.827 1.827 0 0 0-.914-.224c-.35 0-.662.08-.94.237a1.74 1.74 0 0 0-.658.633 1.78 1.78 0 0 0-.255.901v1.847c0 .4.078.752.236 1.055.158.298.381.53.671.697.29.166.635.249 1.036.249.277 0 .528-.038.754-.115.226-.077.42-.19.582-.339.162-.149.283-.332.364-.55l2.87.083a3.55 3.55 0 0 1-.786 1.682c-.4.473-.927.841-1.579 1.106-.652.26-1.406.39-2.263.39zm9.024-.019c-.626 0-1.182-.104-1.668-.313a2.599 2.599 0 0 1-1.144-.959c-.277-.43-.416-.97-.416-1.617 0-.545.096-1.006.288-1.38.192-.376.456-.68.792-.915a3.731 3.731 0 0 1 1.164-.53 7.553 7.553 0 0 1 1.406-.25 20.317 20.317 0 0 0 1.349-.16c.34-.059.588-.142.741-.249a.537.537 0 0 0 .237-.466v-.032c0-.328-.113-.582-.339-.76-.226-.18-.53-.27-.914-.27-.414 0-.746.09-.997.27a1.183 1.183 0 0 0-.48.74l-2.883-.102a3.41 3.41 0 0 1 .659-1.598c.358-.473.848-.843 1.47-1.112.627-.273 1.379-.409 2.257-.409a6.36 6.36 0 0 1 1.732.224c.528.145.988.358 1.38.639.392.277.695.618.908 1.023.217.404.326.867.326 1.387V17h-2.94v-1.368h-.077a2.787 2.787 0 0 1-.671.844c-.269.23-.586.403-.953.518a4.045 4.045 0 0 1-1.227.172zm.965-2.045c.337 0 .64-.068.908-.205.273-.136.49-.324.652-.562.162-.243.243-.524.243-.844v-.933c-.09.047-.198.09-.326.127-.124.039-.26.075-.41.11-.148.033-.302.063-.46.089-.157.025-.308.049-.453.07-.294.047-.546.12-.754.217a1.192 1.192 0 0 0-.474.384.94.94 0 0 0-.16.55c0 .323.116.57.346.741.234.17.53.256.888.256zM100.47 17V7.182h2.973v1.802h.108a2.796 2.796 0 0 1 1.036-1.412c.486-.345 1.065-.518 1.738-.518.682 0 1.266.175 1.752.524.486.35.795.818.927 1.406h.102a2.547 2.547 0 0 1 1.074-1.4c.532-.353 1.161-.53 1.885-.53.929 0 1.684.298 2.263.895.58.592.87 1.406.87 2.442V17h-3.126v-5.893c0-.49-.126-.863-.377-1.12-.252-.259-.578-.389-.978-.389-.431 0-.769.14-1.017.422-.243.277-.364.65-.364 1.119V17h-3.004v-5.925c0-.456-.124-.816-.371-1.08-.247-.265-.573-.397-.978-.397a1.32 1.32 0 0 0-1.214.748c-.115.239-.173.52-.173.844V17h-3.126zm22.245-9.818v2.301h-6.316V7.182h6.316zM117.715 17V6.683c0-.758.143-1.387.428-1.885a2.708 2.708 0 0 1 1.189-1.125c.507-.252 1.093-.378 1.758-.378a7 7 0 0 1 1.227.103c.388.064.676.121.863.172l-.498 2.289a2.614 2.614 0 0 0-.422-.096 2.964 2.964 0 0 0-.46-.039c-.367 0-.618.081-.755.243-.136.162-.204.384-.204.665V17h-3.126zm9.628-13.09V17h-3.126V3.91h3.126zm6.573 13.275c-1.032 0-1.918-.21-2.659-.632a4.359 4.359 0 0 1-1.707-1.777c-.396-.763-.595-1.647-.595-2.653 0-1.01.199-1.894.595-2.653.4-.763.969-1.355 1.707-1.777.741-.426 1.627-.639 2.659-.639 1.031 0 1.915.213 2.652.64a4.258 4.258 0 0 1 1.707 1.776c.401.759.601 1.643.601 2.653 0 1.006-.2 1.89-.601 2.653a4.309 4.309 0 0 1-1.707 1.777c-.737.421-1.621.632-2.652.632zm.019-2.358c.375 0 .692-.115.952-.345.26-.23.458-.55.595-.96.14-.408.211-.881.211-1.418 0-.546-.071-1.023-.211-1.432-.137-.41-.335-.729-.595-.959a1.385 1.385 0 0 0-.952-.345c-.388 0-.716.115-.985.345-.264.23-.466.55-.607.959-.136.409-.204.886-.204 1.432 0 .537.068 1.01.204 1.419.141.409.343.728.607.959.269.23.597.345.985.345zM142.101 17l-2.557-9.818h3.138l1.324 6.29h.083l1.419-6.29h3.061l1.458 6.245h.083l1.285-6.245h3.138L151.97 17h-3.343l-1.534-5.72h-.109L145.45 17h-3.349z" fill="#fff"/><path d="M53.145 35v-9.454h5.669v1.015H54.29v3.195h4.1v1.015h-4.1V35h-1.145zm12.22-9.454V35H64.22v-9.454h1.145zm13.237 0V35h-1.108l-5.152-7.423h-.092V35h-1.145v-9.454h1.108l5.17 7.441h.093v-7.442h1.126zM84.726 35h-1.2l3.471-9.454h1.182L91.651 35h-1.2l-2.826-7.959h-.074L84.726 35zm.443-3.693h4.838v1.015H85.17v-1.015zm18.897-5.761V35h-1.108l-5.152-7.423h-.093V35h-1.145v-9.454h1.108l5.171 7.441h.092v-7.442h1.127zm13.343 2.954h-1.144a2.39 2.39 0 0 0-.965-1.496 2.582 2.582 0 0 0-.79-.388 3.15 3.15 0 0 0-.904-.129c-.573 0-1.092.145-1.556.434-.462.29-.83.716-1.104 1.279-.27.563-.406 1.254-.406 2.073 0 .818.136 1.51.406 2.073.274.563.642.989 1.104 1.278.464.29.983.434 1.556.434.313 0 .615-.043.904-.129.29-.086.553-.214.79-.383a2.43 2.43 0 0 0 .965-1.5h1.144a3.825 3.825 0 0 1-.47 1.297 3.545 3.545 0 0 1-1.99 1.578 4.25 4.25 0 0 1-1.343.208c-.807 0-1.524-.197-2.152-.59-.628-.395-1.122-.955-1.482-1.681-.36-.726-.54-1.588-.54-2.585 0-.997.18-1.86.54-2.585.36-.727.854-1.287 1.482-1.68.628-.395 1.345-.592 2.152-.592.477 0 .924.07 1.343.208.422.138.802.342 1.14.61.339.264.622.587.85.969.227.378.384.81.47 1.297zm5.296 6.5v-9.454h5.705v1.015h-4.561v3.195h4.266v1.015h-4.266v3.213h4.635V35h-5.779z" fill="#18A2D9"/></svg>