<svg width="49" height="48" viewBox="0 0 49 48" fill="none" xmlns="http://www.w3.org/2000/svg">
<rect x="0.667969" width="48" height="48" rx="8" fill="#718298" fill-opacity="0.2"/>
<path d="M40.2266 23.2344C37.2734 17.4375 31.3672 13.5 24.6953 13.5C17.9688 13.5 12.0625 17.4375 9.10938 23.2344C9 23.4531 8.94531 23.7266 8.94531 24C8.94531 24.3281 9 24.6016 9.10938 24.8203C12.0625 30.6172 17.9688 34.5 24.6953 34.5C31.3672 34.5 37.2734 30.6172 40.2266 24.8203C40.3359 24.6016 40.3906 24.3281 40.3906 24.0547C40.3906 23.7266 40.3359 23.4531 40.2266 23.2344ZM24.6953 31.875C20.3203 31.875 16.8203 28.375 16.8203 24C16.8203 19.6797 20.3203 16.125 24.6953 16.125C29.0156 16.125 32.5703 19.6797 32.5703 24V24.0547C32.5703 28.375 29.0156 31.9297 24.6953 31.9297V31.875ZM24.6953 18.75C24.2031 18.8047 23.7109 18.8594 23.2734 18.9688C23.6016 19.4062 23.7656 19.9531 23.7656 20.5547C23.7656 21.9766 22.6172 23.125 21.1953 23.125C20.5938 23.125 20.0469 22.9609 19.6094 22.6328C19.5 23.0703 19.4453 23.5625 19.4453 24C19.4453 26.8984 21.7969 29.25 24.6953 29.25C27.5938 29.25 29.9453 26.8984 29.9453 24C29.9453 21.1016 27.5938 18.8047 24.6953 18.8047V18.75Z" fill="#CDD7E3"/>
</svg>
