<svg width="48" height="48" viewBox="0 0 48 48" fill="none" xmlns="http://www.w3.org/2000/svg">
<rect width="48" height="48" rx="8" fill="#718298" fill-opacity="0.2"/>
<path d="M35.375 11.75H12.625C11.1484 11.75 10 12.9531 10 14.375V33.625C10 35.1016 11.1484 36.25 12.625 36.25H35.375C36.7969 36.25 38 35.1016 38 33.625V14.375C38 12.9531 36.7969 11.75 35.375 11.75ZM17 18.0938C17 18.4766 16.6719 18.75 16.3438 18.75H14.1562C13.7734 18.75 13.5 18.4766 13.5 18.0938V15.9062C13.5 15.5781 13.7734 15.25 14.1562 15.25H16.3438C16.6719 15.25 17 15.5781 17 15.9062V18.0938ZM34.5 18.0938C34.5 18.4766 34.1719 18.75 33.8438 18.75H20.2812C19.8984 18.75 19.625 18.4766 19.625 18.0938V15.9062C19.625 15.5781 19.8984 15.25 20.2812 15.25H33.8438C34.1719 15.25 34.5 15.5781 34.5 15.9062V18.0938Z" fill="#CDD7E3"/>
</svg>
