<?xml version="1.0" encoding="utf-8"?>
<!-- Generator: Adobe Illustrator 26.0.2, SVG Export Plug-In . SVG Version: 6.00 Build 0)  -->
<svg version="1.1" id="Layer_1" xmlns="http://www.w3.org/2000/svg" xmlns:xlink="http://www.w3.org/1999/xlink" x="0px" y="0px"
	 viewBox="0 0 1449 1449" style="enable-background:new 0 0 1449 1449;" xml:space="preserve">
<style type="text/css">
	.st0{fill:#AF7CFF;}
	.st1{enable-background:new    ;}
	.st2{fill:#FFFFFF;}
</style>
<rect id="Rectangle_75" class="st0" width="1449" height="1449"/>
<g class="st1">
	<path class="st2" d="M105,676.2h16.7v56.3h60v-56.3h16.7V805h-16.7v-57.6h-60V805H105V676.2z"/>
	<path class="st2" d="M260.5,750l-44.3-73.8h19.3l20.4,36.8c1.1,2.2,8.3,15.3,12.9,23.9c5-9.6,9-16.9,12.9-23.9l20.4-36.8h19.5
		L277.2,750v55h-16.7V750z"/>
	<path class="st2" d="M342,676.2h41.2c22.4,0,49.3,4,49.3,39c0,33.9-26.9,37.5-49.5,37.5h-24.5V805H342V676.2z M383,738.6
		c15.3,0,33.3-1.1,33.3-23.4c0-24.3-18-24.7-33.1-24.7h-24.7v48H383z"/>
	<path class="st2" d="M457.3,676.2h82.1v14.9h-65.5v41.4H533v14.9h-59.1v42.7h65.5V805h-82.1V676.2z"/>
	<path class="st2" d="M660.7,804.4l-0.2,0.6h-18.2c-4.2-6.4-5.5-12.5-5.5-30.4c0-17.1-6.6-23-28.9-23h-26.5V805h-16.6V676.2h41.4
		c22.6,0,50.2,2.9,50.2,37.9c0,15.8-8.6,27.6-19.9,31.5c12.1,4.6,16.7,14,16.7,27.2C653.3,787.7,654.4,796.5,660.7,804.4z
		 M640.1,714.8c0-24.3-18.4-24.3-33.9-24.3h-24.8v46.9H606C621.7,737.5,640.1,736.2,640.1,714.8z"/>
	<path class="st2" d="M675.4,764l17.7-1.8c0.6,20.1,14.7,31.1,33.9,31.1c17.5,0,32.9-6.3,32.9-24.5c0-17.8-21.7-17.7-40.3-22.3
		c-19.3-4.6-40.5-12-40.5-36.2c0-26.1,23.9-36.2,44.5-36.2c25.4,0,46.6,10.3,49.5,40.1l-17.3,3.1c-0.7-18.6-12.7-29.4-32-29.4
		c-13.6,0-27.6,7.2-27.6,21.7c0,14.7,18.6,19,35.3,21.9c24.7,4.2,45.6,9,45.6,36.1c0,31.3-26.1,39.7-49.7,39.7
		C699.8,807.2,675.9,793.4,675.4,764z"/>
	<path class="st2" d="M800.7,676.2h41.2c22.4,0,49.3,4,49.3,39c0,33.9-26.9,37.5-49.5,37.5h-24.5V805h-16.6V676.2z M841.7,738.6
		c15.3,0,33.3-1.1,33.3-23.4c0-24.3-18-24.7-33.1-24.7h-24.7v48H841.7z"/>
	<path class="st2" d="M912.2,676.2h16.7v56.3h60v-56.3h16.7V805h-16.7v-57.6h-60V805h-16.7V676.2z"/>
	<path class="st2" d="M1037.5,676.2h82.1v14.9H1054v41.4h59.1v14.9H1054v42.7h65.5V805h-82.1V676.2z"/>
	<path class="st2" d="M1240.8,804.4l-0.2,0.6h-18.2c-4.2-6.4-5.5-12.5-5.5-30.4c0-17.1-6.6-23-28.9-23h-26.5V805h-16.6V676.2h41.4
		c22.6,0,50.2,2.9,50.2,37.9c0,15.8-8.6,27.6-19.9,31.5c12.1,4.6,16.7,14,16.7,27.2C1233.4,787.7,1234.5,796.5,1240.8,804.4z
		 M1220.2,714.8c0-24.3-18.4-24.3-33.9-24.3h-24.8v46.9h24.7C1201.8,737.5,1220.2,736.2,1220.2,714.8z"/>
	<path class="st2" d="M1266,676.2h82.1v14.9h-65.5v41.4h59.1v14.9h-59.1v42.7h65.5V805H1266V676.2z"/>
</g>
</svg>
