<?xml version="1.0" encoding="utf-8"?>
<!-- Generator: Adobe Illustrator 24.0.0, SVG Export Plug-In . SVG Version: 6.00 Build 0)  -->
<svg version="1.1" id="Layer_1" xmlns="http://www.w3.org/2000/svg" xmlns:xlink="http://www.w3.org/1999/xlink" x="0px" y="0px"
	 viewBox="0 0 1190.55 746.39" style="enable-background:new 0 0 1190.55 746.39;" xml:space="preserve">
<style type="text/css">
	.st0{fill:#F1D050;}
</style>
<g>
	<path class="st0" d="M785.11,313.74c-1.76-1.73-3.85-3.13-6.2-4.17c-2.38-1.04-4.93-1.57-7.58-1.57h-69.45
		c-2.65,0-5.21,0.53-7.58,1.57c-2.36,1.04-4.44,2.44-6.2,4.17c-1.77,1.74-3.18,3.82-4.19,6.19c-1.01,2.37-1.52,4.92-1.52,7.57v91.41
		c0,2.65,0.51,5.2,1.52,7.57c1.01,2.36,2.42,4.46,4.18,6.22c1.77,1.77,3.86,3.18,6.22,4.18c2.37,1.01,4.92,1.52,7.57,1.52h69.45
		c2.65,0,5.2-0.51,7.57-1.52c2.36-1.01,4.46-2.42,6.22-4.18c1.77-1.77,3.17-3.86,4.18-6.22c1.01-2.38,1.52-4.92,1.52-7.57v-50.56
		H735.4v20.7h34.72v28.66h-67.04v-89.01h67.04v16.51h20.7v-17.71c0-2.64-0.51-5.19-1.53-7.57
		C788.29,317.56,786.88,315.48,785.11,313.74z"/>
	<path class="st0" d="M919.8,379.29c-1.62-2.53-3.62-4.64-5.94-6.27c-1.56-1.09-3.25-2.03-5.05-2.78c3.83-2.28,6.78-5.43,8.78-9.4
		c2.36-4.7,3.56-10.82,3.56-18.17v-2.32c0-21.47-10.86-32.35-32.26-32.35h-67.61V438.4h71.28c21.41,0,32.27-10.86,32.27-32.26v-6.43
		c0-4.3-0.43-8.19-1.29-11.54C922.67,384.78,921.41,381.79,919.8,379.29z M841.62,362.35v-34.02h46.74c4.45,0,7.67,1.02,9.57,3.02
		c1.92,2.02,2.89,5.35,2.89,9.89v8.39c0,4.32-0.88,7.53-2.61,9.52c-1.7,1.96-4.61,3.04-8.6,3.2H841.62z M904.47,395.33v9.91
		c0,4.48-0.97,7.78-2.88,9.8c-1.9,2-5.12,3.02-9.57,3.02h-50.39v-35.45h50.39c4.46,0,7.69,0.99,9.58,2.94
		C903.5,387.51,904.47,390.8,904.47,395.33z"/>
	<polygon class="st0" points="1038.56,307.99 999.49,411.13 960.5,307.99 938.29,307.99 988.58,438.4 1010.4,438.4 1060.69,307.99 	
		"/>
	<path class="st0" d="M576.25,405.6v-0.68c0-1.92-1.02-3.69-2.68-4.66l-106.22-61.88l0-26.33v-95.79c0-0.02-0.01-0.04-0.01-0.06
		l0-0.71c0-1.92-1.02-3.7-2.68-4.66l-108.83-63.34c-1.67-0.97-3.73-0.98-5.4-0.02l-108.96,62.59c-1.67,0.96-2.71,2.75-2.71,4.68
		l0,0.75c0,0.01,0,0.01,0,0.02v122.11L132.57,398.7c-1.67,0.96-2.71,2.75-2.7,4.68l0,0.72c0,0.02,0,0.03,0,0.05v125.99
		c0,1.92,1.02,3.69,2.68,4.66l108.9,63.38c0.1,0.06,0.2,0.11,0.3,0.16l0,0c0.14,0.07,0.28,0.13,0.43,0.18
		c0.03,0.01,0.05,0.02,0.08,0.03c0.28,0.11,0.56,0.18,0.85,0.24c0.01,0,0.02,0.01,0.03,0.01c0.01,0,0.03,0,0.04,0
		c0.33,0.06,0.66,0.1,0.99,0.1c0.03,0,0.06-0.01,0.08-0.01c0.01,0,0.02,0,0.03,0c0.03,0,0.05-0.01,0.08-0.01
		c0.22-0.01,0.43-0.02,0.65-0.06c0.05-0.01,0.09-0.02,0.14-0.03c0.19-0.04,0.39-0.08,0.58-0.13c0.05-0.02,0.1-0.04,0.15-0.05
		c0.18-0.06,0.36-0.12,0.53-0.2c0.03-0.01,0.06-0.03,0.09-0.05c0.17-0.08,0.35-0.17,0.51-0.27c0.02-0.01,0.04-0.03,0.06-0.04
		l106.01-60.96l106.18,61.79c0.15,0.09,0.3,0.16,0.46,0.23c0.04,0.02,0.08,0.05,0.13,0.07c0.05,0.02,0.1,0.04,0.15,0.06
		c0.06,0.02,0.12,0.03,0.18,0.05c0.11,0.04,0.21,0.08,0.31,0.11c0.08,0.02,0.16,0.03,0.24,0.05c0.14,0.03,0.29,0.07,0.43,0.09
		c0.13,0.02,0.25,0.03,0.38,0.04c0.15,0.01,0.3,0.04,0.46,0.04c0.93,0,1.86-0.24,2.69-0.72l108.87-62.61
		c1.67-0.96,2.71-2.78,2.71-4.71v-125.9c0-0.01,0-0.01,0-0.02c0-0.01,0-0.02,0-0.03C576.25,405.63,576.25,405.61,576.25,405.6z
		 M456.56,315.15v23.99l-98.05,56.39V281.97l98.05-56.38L456.56,315.15z M347.67,395.47l-98.09-57.08l-0.02-113.5l98.11,57.1V395.47
		z M342.29,404.87l-98.08,56.4l-98.15-57.12l98.08-56.41L342.29,404.87z M363.93,404.94l98.05-56.41l98.11,57.09l-98.08,56.4
		L363.93,404.94z M353.1,272.63l-98.14-57.11l98.09-56.41l98.14,57.11L353.1,272.63z M140.66,413.53l98.1,57.09l0,112.75
		l-97.99-57.03L140.66,413.53z M249.56,583.42V470.74l98.11-56.45v112.7L249.56,583.42z M358.51,527.04V414.3l98.06,57.06v112.72
		L358.51,527.04z M565.46,527.71l-98.1,56.44v-112.7l98.1-56.42V527.71z"/>
</g>
</svg>
