<svg version="1.2" baseProfile="tiny-ps" xmlns="http://www.w3.org/2000/svg" viewBox="0 0 600 106" width="600" height="106">
	<title>StreamFlow-ai</title>
	<style>
		tspan { white-space:pre }
		.shp0 { fill: #18a2d9 } 
		.shp1 { fill: #FFFFe0 } 
	</style>
	<g >
		<g >
			<g >
				<path class="shp0" d="M26.51 -0.02C11.87 -0.02 0 11.85 0 26.49L0 26.49L106.03 26.49L106.03 -0.02L26.51 -0.02Z" />
				<path class="shp0" d="M79.52 39.75L0 39.75C0 54.39 11.87 66.25 26.51 66.25L106.03 66.25L106.03 66.25C106.03 51.61 94.16 39.75 79.52 39.75Z" />
				<path class="shp0" d="M26.51 106.02L53.02 106.02L53.02 79.51L0 79.51C0 94.15 11.87 106.02 26.51 106.02Z" />
			</g>
			<g >
				<g >
					<path class="shp1" d="M158.7 57.39C156.03 56.17 153.93 54.47 152.4 52.28C150.88 50.09 150.06 47.65 149.96 44.95L155.61 44.95C155.86 47.55 157.01 49.83 159.05 51.78C161.08 53.74 164.06 54.72 167.98 54.72C171.59 54.72 174.45 53.8 176.57 51.94C178.68 50.08 179.73 47.73 179.73 44.88C179.73 42.59 179.15 40.74 177.98 39.34C176.81 37.94 175.36 36.9 173.63 36.21C171.9 35.52 169.5 34.77 166.45 33.96C162.89 32.99 160.06 32.05 157.98 31.13C155.89 30.22 154.11 28.79 152.63 26.86C151.16 24.92 150.42 22.3 150.42 19C150.42 16.25 151.13 13.79 152.56 11.63C153.98 9.46 155.99 7.77 158.59 6.55C161.18 5.33 164.16 4.72 167.52 4.72C172.46 4.72 176.44 5.93 179.47 8.34C182.49 10.76 184.24 13.88 184.7 17.7L178.89 17.7C178.54 15.51 177.34 13.56 175.31 11.86C173.27 10.15 170.52 9.3 167.06 9.3C163.85 9.3 161.18 10.15 159.05 11.86C156.91 13.56 155.84 15.89 155.84 18.84C155.84 21.08 156.42 22.89 157.6 24.26C158.77 25.64 160.23 26.68 161.98 27.39C163.74 28.11 166.12 28.87 169.12 29.68C172.58 30.65 175.38 31.61 177.52 32.55C179.66 33.49 181.46 34.92 182.94 36.86C184.42 38.79 185.15 41.39 185.15 44.65C185.15 47.14 184.49 49.51 183.17 51.75C181.85 53.99 179.89 55.79 177.29 57.17C174.7 58.54 171.59 59.23 167.98 59.23C164.47 59.23 161.37 58.62 158.7 57.39Z" />
					<path class="shp1" d="M202.41 21.51L202.41 47.39C202.41 49.94 202.89 51.7 203.86 52.66C204.82 53.63 206.53 54.11 208.97 54.11L213.86 54.11L213.86 58.69L208.13 58.69C204.37 58.69 201.57 57.81 199.74 56.06C197.9 54.3 196.99 51.42 196.99 47.39L196.99 21.51L191.18 21.51L191.18 17.01L196.99 17.01L196.99 6.55L202.41 6.55L202.41 17.01L213.86 17.01L213.86 21.51L202.41 21.51Z" />
					<path class="shp1" d="M233.36 18.38C235.78 16.96 238.75 16.25 242.26 16.25L242.26 21.82L240.81 21.82C236.94 21.82 233.83 22.86 231.49 24.95C229.15 27.04 227.98 30.52 227.98 35.41L227.98 58.69L222.64 58.69L222.64 17.01L227.98 17.01L227.98 24.41C229.15 21.82 230.95 19.81 233.36 18.38Z" />
					<path fill-rule="evenodd" class="shp1" d="M287.83 39.91L253.25 39.91C253.41 43.07 254.17 45.77 255.54 48C256.92 50.25 258.72 51.94 260.96 53.08C263.2 54.23 265.64 54.8 268.29 54.8C271.75 54.8 274.67 53.96 277.03 52.28C279.4 50.6 280.96 48.34 281.73 45.49L287.38 45.49C286.36 49.56 284.18 52.88 280.85 55.45C277.52 58.02 273.33 59.3 268.29 59.3C264.37 59.3 260.86 58.43 257.76 56.67C254.65 54.91 252.22 52.42 250.46 49.19C248.71 45.96 247.83 42.18 247.83 37.85C247.83 33.53 248.7 29.73 250.43 26.48C252.16 23.22 254.58 20.72 257.68 19C260.78 17.27 264.32 16.4 268.29 16.4C272.26 16.4 275.73 17.27 278.71 19C281.69 20.72 283.98 23.05 285.58 25.98C287.19 28.91 287.99 32.15 287.99 35.71C287.99 37.55 287.94 38.95 287.83 39.91ZM280.7 27.62C279.4 25.43 277.63 23.78 275.39 22.66C273.15 21.54 270.71 20.98 268.06 20.98C264.09 20.98 260.71 22.25 257.91 24.8C255.11 27.34 253.56 30.93 253.25 35.56L282.57 35.56C282.62 32.46 281.99 29.81 280.7 27.62Z" />
					<path fill-rule="evenodd" class="shp1" d="M297.87 26.51C299.58 23.28 301.94 20.79 304.97 19.03C308 17.28 311.42 16.4 315.24 16.4C319.21 16.4 322.63 17.32 325.51 19.15C328.38 20.98 330.46 23.32 331.73 26.17L331.73 17.01L337.08 17.01L337.08 58.69L331.73 58.69L331.73 49.45C330.41 52.31 328.31 54.66 325.43 56.52C322.56 58.38 319.13 59.3 315.16 59.3C311.4 59.3 308 58.41 304.97 56.63C301.94 54.85 299.58 52.33 297.87 49.07C296.17 45.82 295.31 42.05 295.31 37.77C295.31 33.5 296.17 29.75 297.87 26.51ZM329.67 29C328.3 26.45 326.43 24.49 324.06 23.12C321.69 21.74 319.08 21.06 316.23 21.06C313.28 21.06 310.63 21.72 308.29 23.04C305.95 24.37 304.11 26.28 302.76 28.81C301.41 31.32 300.74 34.31 300.74 37.77C300.74 41.19 301.41 44.18 302.76 46.75C304.11 49.32 305.95 51.27 308.29 52.62C310.63 53.97 313.28 54.65 316.23 54.65C319.08 54.65 321.69 53.96 324.06 52.59C326.43 51.21 328.3 49.25 329.67 46.71C331.04 44.16 331.73 41.21 331.73 37.85C331.73 34.49 331.04 31.54 329.67 29Z" />
					<path class="shp1" d="M410.86 20.87C413.94 23.94 415.48 28.41 415.48 34.26L415.48 58.69L410.21 58.69L410.21 34.87C410.21 30.34 409.12 26.88 406.93 24.49C404.74 22.1 401.76 20.9 398 20.9C394.08 20.9 390.95 22.2 388.61 24.8C386.26 27.39 385.09 31.16 385.09 36.09L385.09 58.69L379.83 58.69L379.83 34.87C379.83 30.34 378.73 26.88 376.55 24.49C374.36 22.1 371.35 20.9 367.54 20.9C363.62 20.9 360.49 22.2 358.15 24.8C355.81 27.39 354.63 31.16 354.63 36.09L354.63 58.69L349.29 58.69L349.29 17.01L354.63 17.01L354.63 24.18C355.96 21.59 357.84 19.62 360.28 18.27C362.73 16.92 365.45 16.25 368.45 16.25C372.07 16.25 375.23 17.11 377.96 18.84C380.68 20.57 382.65 23.12 383.87 26.48C384.99 23.17 386.91 20.64 389.64 18.88C392.36 17.13 395.45 16.25 398.91 16.25C403.8 16.25 407.78 17.79 410.86 20.87Z" />
					<path class="shp1" d="M460.82 5.1L460.82 15.56L438.99 15.56L438.99 26.86L455.33 26.86L455.33 37.01L438.99 37.01L438.99 58.69L425.94 58.69L425.94 5.1L460.82 5.1Z" />
					<path class="shp1" d="M480.75 2.2L480.75 58.69L467.7 58.69L467.7 2.2L480.75 2.2Z" />
					<path fill-rule="evenodd" class="shp1" d="M498.35 56.63C495.02 54.85 492.39 52.31 490.49 49C488.58 45.69 487.62 41.82 487.62 37.39C487.62 33.02 488.59 29.16 490.52 25.83C492.46 22.5 495.1 19.94 498.46 18.15C501.82 16.37 505.59 15.48 509.76 15.48C513.94 15.48 517.7 16.37 521.06 18.15C524.42 19.94 527.07 22.5 529 25.83C530.93 29.16 531.9 33.02 531.9 37.39C531.9 41.77 530.92 45.63 528.96 48.96C527 52.29 524.33 54.85 520.95 56.63C517.56 58.41 513.78 59.3 509.61 59.3C505.44 59.3 501.68 58.41 498.35 56.63ZM515.98 45.26C517.74 43.42 518.62 40.8 518.62 37.39C518.62 33.98 517.77 31.36 516.06 29.53C514.35 27.7 512.26 26.78 509.76 26.78C507.22 26.78 505.11 27.68 503.43 29.49C501.75 31.3 500.91 33.93 500.91 37.39C500.91 40.8 501.73 43.42 503.39 45.26C505.04 47.09 507.12 48 509.61 48C512.1 48 514.23 47.09 515.98 45.26Z" />
					<path class="shp1" d="M600 16.09L588.47 58.69L574.04 58.69L567.32 31.06L560.38 58.69L546.03 58.69L534.42 16.09L547.47 16.09L553.51 46.56L560.68 16.09L574.5 16.09L581.75 46.4L587.71 16.09L600 16.09Z" />
				</g>
				<g >
					<path class="shp1" d="M437.96 81.37L437.96 83.22L428.16 83.22L428.16 91.52L436.43 91.52L436.43 93.37L428.16 93.37L428.16 103.61L425.94 103.61L425.94 81.37L437.96 81.37Z" />
					<path class="shp1" d="M450.21 81.37L450.21 103.61L447.98 103.61L447.98 81.37L450.21 81.37Z" />
					<path class="shp1" d="M478.39 103.61L476.16 103.61L463.85 84.9L463.85 103.61L461.63 103.61L461.63 81.37L463.85 81.37L476.16 100.05L476.16 81.37L478.39 81.37L478.39 103.61Z" />
					<path fill-rule="evenodd" class="shp1" d="M502.69 98.33L492.58 98.33L490.64 103.61L488.28 103.61L496.39 81.66L498.91 81.66L506.99 103.61L504.63 103.61L502.69 98.33ZM502.02 96.48L497.64 84.46L493.25 96.48L502.02 96.48Z" />
					<path class="shp1" d="M533.67 103.61L531.45 103.61L519.14 84.9L519.14 103.61L516.91 103.61L516.91 81.37L519.14 81.37L531.45 100.05L531.45 81.37L533.67 81.37L533.67 103.61Z" />
					<path class="shp1" d="M545.51 86.61C546.46 84.88 547.77 83.53 549.42 82.57C551.07 81.6 552.92 81.12 554.95 81.12C557.44 81.12 559.56 81.71 561.33 82.89C563.1 84.06 564.39 85.72 565.2 87.86L562.59 87.86C561.95 86.36 560.98 85.18 559.68 84.33C558.37 83.48 556.8 83.06 554.95 83.06C553.32 83.06 551.85 83.44 550.55 84.2C549.25 84.97 548.22 86.07 547.48 87.5C546.74 88.93 546.37 90.59 546.37 92.48C546.37 94.36 546.74 96.02 547.48 97.44C548.22 98.86 549.25 99.95 550.55 100.71C551.85 101.48 553.32 101.86 554.95 101.86C556.8 101.86 558.37 101.44 559.68 100.6C560.98 99.77 561.95 98.6 562.59 97.12L565.2 97.12C564.39 99.24 563.1 100.88 561.32 102.05C559.54 103.22 557.42 103.8 554.95 103.8C552.92 103.8 551.07 103.32 549.42 102.35C547.77 101.39 546.46 100.05 545.51 98.33C544.55 96.61 544.08 94.66 544.08 92.48C544.08 90.29 544.55 88.34 545.51 86.61Z" />
					<path class="shp1" d="M578.21 83.19L578.21 91.49L586.64 91.49L586.64 93.33L578.21 93.33L578.21 101.76L587.59 101.76L587.59 103.61L575.98 103.61L575.98 81.34L587.59 81.34L587.59 83.19L578.21 83.19Z" />
				</g>
			</g>
		</g>
	</g>
</svg>