<svg xmlns="http://www.w3.org/2000/svg" width="464" height="90" viewBox="0 0 464 90">
  <path d="M101.111,70.958,84.5,88.773A3.855,3.855,0,0,1,81.677,90H2.932a1.928,1.928,0,0,1-1.41-3.244L18.135,68.941a3.858,3.858,0,0,1,2.821-1.227H99.7A1.929,1.929,0,0,1,101.111,70.958ZM84.5,35.084a3.855,3.855,0,0,0-2.821-1.227H2.932A1.928,1.928,0,0,0,1.522,37.1L18.135,54.916a3.854,3.854,0,0,0,2.821,1.227H99.7a1.929,1.929,0,0,0,1.411-3.244ZM2.932,22.286H81.677A3.859,3.859,0,0,0,84.5,21.059L101.111,3.244A1.929,1.929,0,0,0,99.7,0H20.956a3.854,3.854,0,0,0-2.821,1.227L1.522,19.042A1.928,1.928,0,0,0,2.932,22.286Z"/>
  <g>
    <g>
      <path d="M145.571,22.178h20.386v6.753H138v7.213h27.624a7.554,7.554,0,0,0,7.545-7.546V22.511a7.553,7.553,0,0,0-7.545-7.545H145.239V8.213h27.93V1h-27.6a7.554,7.554,0,0,0-7.545,7.545v6.088A7.554,7.554,0,0,0,145.571,22.178Z"/>
      <path d="M208.591,1H187.105a7.554,7.554,0,0,0-7.545,7.545V28.6a7.554,7.554,0,0,0,7.545,7.546h21.486a7.554,7.554,0,0,0,7.545-7.546V8.545A7.554,7.554,0,0,0,208.591,1Zm.332,7.213V28.931h-22.15V8.213Z"/>
      <path d="M227.31,36.144h29.747V28.931H229.842V1h-7.213V31.463A4.686,4.686,0,0,0,227.31,36.144Z"/>
      <path d="M293.91,1H269.56a6.12,6.12,0,0,0-6.113,6.113V36.144h7.213V24.685h22.15V36.144h7.213V7.113A6.12,6.12,0,0,0,293.91,1Zm-1.1,7.213v9.259H270.66V8.213Z"/>
      <path d="M335.777,28.931h-1.341L320.9,3.484A4.67,4.67,0,0,0,316.77,1H311.1a4.686,4.686,0,0,0-4.681,4.681V36.144h7.213V8.213h1.627L328.781,33.66a4.671,4.671,0,0,0,4.133,2.484h5.4a4.686,4.686,0,0,0,4.681-4.681V1h-7.213Z"/>
      <path d="M380.435,1h-24.35a6.119,6.119,0,0,0-6.112,6.113V36.144h7.212V24.685h22.151V36.144h7.213V7.113A6.12,6.12,0,0,0,380.435,1Zm-1.1,7.213v9.259H357.185V8.213Z"/>
    </g>
    <g>
      <path d="M434.848,74.968h20.265V81.68H427.322v7.171h27.46a7.51,7.51,0,0,0,7.5-7.5V75.3a7.509,7.509,0,0,0-7.5-7.5H434.518V61.086h27.765V53.915H434.848a7.509,7.509,0,0,0-7.5,7.5v6.051A7.509,7.509,0,0,0,434.848,74.968Z"/>
      <path d="M157.285,81.68h-2.147l-9.554-27.765H138l10.946,31.8a4.654,4.654,0,0,0,4.4,3.139h5.738a4.655,4.655,0,0,0,4.4-3.139l10.945-31.8h-7.584Z"/>
      <polygon points="180.203 88.851 214.427 88.851 214.427 81.68 187.373 81.68 187.373 74.968 214.427 74.968 214.427 67.798 187.373 67.798 187.373 61.086 214.427 61.086 214.427 53.915 180.203 53.915 180.203 88.851"/>
      <path d="M249.562,81.83h-1.334l-13.452-25.3a4.642,4.642,0,0,0-4.108-2.469h-5.642a4.658,4.658,0,0,0-4.653,4.653V89h7.17V61.235h1.617l13.447,25.3A4.643,4.643,0,0,0,246.715,89h5.364a4.658,4.658,0,0,0,4.653-4.653V54.065h-7.17Z"/>
      <polygon points="263.085 61.235 276.967 61.235 276.967 89 284.137 89 284.137 61.235 298.02 61.235 298.02 54.065 263.085 54.065 263.085 61.235"/>
      <path d="M333.46,75.8a6.033,6.033,0,0,1-6.026,6.026h-9.967a6.033,6.033,0,0,1-6.026-6.026V54.065h-7.17V77.228A11.785,11.785,0,0,0,316.043,89h12.815A11.785,11.785,0,0,0,340.63,77.228V54.065h-7.17Z"/>
      <path d="M381.206,64.976a11.078,11.078,0,0,0-11.06-11.061H346.983V88.851h7.17V76.036h12.368l6.813,12.815h8.126l-7.228-13.6A11.082,11.082,0,0,0,381.206,64.976Zm-27.053-3.89h15.992a3.89,3.89,0,1,1,0,7.78H354.153Z"/>
      <polygon points="387.153 88.851 421.376 88.851 421.376 81.68 394.322 81.68 394.322 74.968 421.376 74.968 421.376 67.798 394.322 67.798 394.322 61.086 421.376 61.086 421.376 53.915 387.153 53.915 387.153 88.851"/>
    </g>
  </g>
</svg>
