<?xml version="1.0" encoding="UTF-8" standalone="no"?>
<svg
   xmlns:dc="http://purl.org/dc/elements/1.1/"
   xmlns:cc="http://creativecommons.org/ns#"
   xmlns:rdf="http://www.w3.org/1999/02/22-rdf-syntax-ns#"
   xmlns:svg="http://www.w3.org/2000/svg"
   xmlns="http://www.w3.org/2000/svg"
   xmlns:xlink="http://www.w3.org/1999/xlink"
   xmlns:sodipodi="http://sodipodi.sourceforge.net/DTD/sodipodi-0.dtd"
   xmlns:inkscape="http://www.inkscape.org/namespaces/inkscape"
   version="1.1"
   id="illustration"
   x="0px"
   enable-background="new 0 0 512 512"
   y="0px"
   viewBox="0 0 612 953"
   xml:space="preserve"
   sodipodi:docname="illustration.svg"
   inkscape:version="1.0.2 (e86c870879, 2021-01-15)"><metadata
   id="metadata117"><rdf:RDF><cc:Work
       rdf:about=""><dc:format>image/svg+xml</dc:format><dc:type
         rdf:resource="http://purl.org/dc/dcmitype/StillImage" /></cc:Work></rdf:RDF></metadata><defs
   id="defs115"><linearGradient
     id="paint1_linear"
     x1="56.802898"
     y1="17.0278"
     x2="28.279699"
     y2="70.544998"
     gradientUnits="userSpaceOnUse"><stop
       stop-color="#00FFA3"
       id="stop15" /><stop
       offset="1"
       stop-color="#DC1FFF"
       id="stop17" /></linearGradient><linearGradient
     id="paint0_linear"
     x1="56.802898"
     y1="16.975"
     x2="28.066099"
     y2="70.635201"
     gradientUnits="userSpaceOnUse"
     gradientTransform="matrix(1.7519469,0.87597345,0,1.7519469,257.83789,431.89091)"><stop
       stop-color="#00FFA3"
       id="stop10" /><stop
       offset="1"
       stop-color="#DC1FFF"
       id="stop12" /></linearGradient><linearGradient
     inkscape:collect="always"
     xlink:href="#paint1_linear"
     id="linearGradient969"
     gradientUnits="userSpaceOnUse"
     x1="56.802898"
     y1="17.0278"
     x2="28.279699"
     y2="70.544998"
     gradientTransform="matrix(1.7519469,0.87597345,0,1.7519469,257.83789,431.89091)" /><linearGradient
     inkscape:collect="always"
     xlink:href="#paint1_linear"
     id="linearGradient971"
     gradientUnits="userSpaceOnUse"
     x1="56.802898"
     y1="17.0278"
     x2="28.279699"
     y2="70.544998"
     gradientTransform="matrix(1.7519469,0.87597345,0,1.7519469,257.83789,431.89091)" /><filter
     style="color-interpolation-filters:sRGB;"
     inkscape:menu-tooltip="Fades hue progressively to white"
     inkscape:menu="Color"
     inkscape:label="Colorize"
     id="filter1044"><feColorMatrix
       values="1 0 0 0 0 1 0 0 0 0 1 0 0 0 0 0 0 0 0 1 "
       type="matrix"
       result="r"
       in="SourceGraphic"
       id="feColorMatrix1016" /><feColorMatrix
       values="0 1 0 0 0 0 1 0 0 0 0 1 0 0 0 0 0 0 0 1 "
       type="matrix"
       result="g"
       in="SourceGraphic"
       id="feColorMatrix1018" /><feColorMatrix
       values="0 0 1 0 0 0 0 1 0 0 0 0 1 0 0 0 0 0 0 1 "
       type="matrix"
       result="b"
       in="SourceGraphic"
       id="feColorMatrix1020" /><feBlend
       result="minrg"
       in="r"
       mode="darken"
       in2="g"
       id="feBlend1022" /><feBlend
       result="p"
       in="minrg"
       mode="darken"
       in2="b"
       id="feBlend1024" /><feBlend
       result="maxrg"
       in="r"
       mode="lighten"
       in2="g"
       id="feBlend1026" /><feBlend
       result="q"
       in="maxrg"
       mode="lighten"
       in2="b"
       id="feBlend1028" /><feComponentTransfer
       result="q2"
       in="q"
       id="feComponentTransfer1032"><feFuncR
         slope="0"
         type="linear"
         id="feFuncR1030" /></feComponentTransfer><feBlend
       result="pq"
       in="p"
       mode="lighten"
       in2="q2"
       id="feBlend1034" /><feColorMatrix
       values="-1 1 0 0 0 -1 1 0 0 0 -1 1 0 0 0 0 0 0 0 1 "
       type="matrix"
       result="qminp"
       in="pq"
       id="feColorMatrix1036" /><feComposite
       k3="1"
       operator="arithmetic"
       result="qminpc"
       in="qminp"
       in2="qminp"
       id="feComposite1038" /><feBlend
       result="result2"
       in2="SourceGraphic"
       mode="screen"
       id="feBlend1040" /><feComposite
       operator="in"
       in="result2"
       in2="SourceGraphic"
       result="fbSourceGraphic"
       id="feComposite1042" /><feColorMatrix
       result="fbSourceGraphicAlpha"
       in="fbSourceGraphic"
       values="0 0 0 -1 0 0 0 0 -1 0 0 0 0 -1 0 0 0 0 1 0"
       id="feColorMatrix1272" /><feComposite
       in2="fbSourceGraphic"
       id="feComposite1274"
       operator="arithmetic"
       k1="0"
       k2="0"
       result="composite1"
       in="fbSourceGraphic" /><feColorMatrix
       id="feColorMatrix1276"
       in="composite1"
       values="1"
       type="saturate"
       result="colormatrix1" /><feFlood
       id="feFlood1278"
       flood-opacity="1"
       flood-color="rgb(125,178,255)"
       result="flood1" /><feBlend
       in2="colormatrix1"
       id="feBlend1280"
       in="flood1"
       mode="screen"
       result="blend1" /><feBlend
       in2="blend1"
       id="feBlend1282"
       mode="normal"
       result="blend2" /><feColorMatrix
       id="feColorMatrix1284"
       in="blend2"
       values="1"
       type="saturate"
       result="colormatrix2" /><feComposite
       in2="fbSourceGraphic"
       id="feComposite1286"
       in="colormatrix2"
       operator="in"
       k2="1"
       result="composite2" /></filter></defs><sodipodi:namedview
   pagecolor="#ffffff"
   bordercolor="#666666"
   borderopacity="1"
   objecttolerance="10"
   gridtolerance="10"
   guidetolerance="10"
   inkscape:pageopacity="0"
   inkscape:pageshadow="2"
   inkscape:window-width="1916"
   inkscape:window-height="1062"
   id="namedview113"
   showgrid="false"
   inkscape:zoom="2.0793424"
   inkscape:cx="264.49394"
   inkscape:cy="539.88582"
   inkscape:window-x="0"
   inkscape:window-y="14"
   inkscape:window-maximized="0"
   inkscape:current-layer="illustration" />
<style
   type="text/css"
   id="style2">
	.st0{opacity:0.3;fill:url(#SVGID_1_);enable-background:new    ;}
	.st1{opacity:0.3;fill:url(#SVGID_2_);enable-background:new    ;}
	.st2{opacity:0.3;fill:url(#SVGID_3_);enable-background:new    ;}
	.st3{fill:#18a2d9;}
	.st4{opacity:0.3;fill:url(#SVGID_4_);enable-background:new    ;}
	.st5{fill:#00ffa3;}
	.st6{opacity:0.3;fill:url(#SVGID_5_);enable-background:new    ;}
	.st7{opacity:0.3;fill:url(#SVGID_6_);enable-background:new    ;}
	.st8{opacity:0.3;fill:url(#SVGID_7_);enable-background:new    ;}
	.st9{opacity:0.15;fill:#FFFFFF;enable-background:new    ;}
	.st10{opacity:0.2;fill:#FFFFFF;enable-background:new    ;}
	.st11{opacity:0.2;fill:url(#SVGID_8_);enable-background:new    ;}
	.st12{opacity:0.2;fill:url(#SVGID_9_);enable-background:new    ;}
	.st13{opacity:0.4;fill:#18a2d9;enable-background:new    ;}
	.st14{opacity:0.5;fill:#00ffa3;enable-background:new    ;}
</style>
<linearGradient
   id="SVGID_1_"
   gradientUnits="userSpaceOnUse"
   x1="350.6691"
   y1="1035.2568"
   x2="186.5801"
   y2="750.9727"
   gradientTransform="matrix(1 0 0 -1 0 1116)">
	<stop
   offset="0"
   style="stop-color:#FFFFFF"
   id="stop4" />
	<stop
   offset="1"
   style="stop-color:#FFFFFF;stop-opacity:0"
   id="stop6" />
</linearGradient>
<path
   class="st0"
   d="M237.1,2.1c6.3,3.6,11.3,12.4,11.3,19.6v193.2l57.3,33.1v199.3c0,7.2-5.1,10.1-11.3,6.5  c-6.3-3.6-11.3-12.4-11.3-19.6V261l-57.4-33V8.6C225.7,1.4,230.8-1.5,237.1,2.1z"
   id="path9" />
<linearGradient
   id="SVGID_2_"
   gradientUnits="userSpaceOnUse"
   x1="231.9801"
   y1="308.7277"
   x2="335.7061"
   y2="488.4328"
   gradientTransform="matrix(1 0 0 -1 0 1116)">
	<stop
   offset="0"
   style="stop-color:#FFFFFF"
   id="stop11" />
	<stop
   offset="1"
   style="stop-color:#FFFFFF;stop-opacity:0"
   id="stop13" />
</linearGradient>
<path
   class="st1"
   d="M268.3,841.3c6.3,3.6,11.3,0.7,11.3-6.5V690l57.3,33.1v-94.8c0-7.2-5.1-16-11.3-19.6  c-6.3-3.6-11.3-0.7-11.3,6.5v68.7L257,650.8v170.9C257,828.9,262.1,837.7,268.3,841.3z"
   id="path16" />
<linearGradient
   id="SVGID_3_"
   gradientUnits="userSpaceOnUse"
   x1="427.5634"
   y1="917.9923"
   x2="285.2375"
   y2="671.4093"
   gradientTransform="matrix(1 0 0 -1 0 1116)">
	<stop
   offset="0"
   style="stop-color:#FFFFFF"
   id="stop18" />
	<stop
   offset="1"
   style="stop-color:#FFFFFF;stop-opacity:0"
   id="stop20" />
</linearGradient>
<path
   class="st2"
   d="M356.4,143.9c6.3,3.6,11.3,12.4,11.3,19.6v328.7c0,7.2-5.1,10.1-11.3,6.5c-6.3-3.6-11.3-12.4-11.3-19.6V150.4  C345.1,143.2,350.2,140.3,356.4,143.9z"
   id="path23" />
<path
   class="st3"
   d="M292.2,824.8c0,19.8-11.6,29.2-25.9,20.9c-14.3-8.2-25.9-31-25.9-50.8s11.6-29.2,25.9-20.9  C280.6,782.2,292.2,805,292.2,824.8z"
   id="path25" />
<linearGradient
   id="SVGID_4_"
   gradientUnits="userSpaceOnUse"
   x1="543.1555"
   y1="854.8711"
   x2="407.5745"
   y2="619.9781"
   gradientTransform="matrix(1 0 0 -1 0 1116)">
	<stop
   offset="0"
   style="stop-color:#FFFFFF"
   id="stop27" />
	<stop
   offset="1"
   style="stop-color:#FFFFFF;stop-opacity:0"
   id="stop29" />
</linearGradient>
<path
   class="st4"
   d="M482.5,308.7c-6.3-3.6-11.3-0.7-11.3,6.5v97.6l-57.3-33.1v119.9c0,7.2,5.1,16,11.3,19.6  c6.3,3.6,11.3,0.7,11.3-6.5v-93.8l57.3,33.1V328.3C493.8,321.1,488.7,312.3,482.5,308.7z"
   id="path32" />
<path
   class="st5"
   d="M507.9,343.2c0,19.6-11.5,28.8-25.6,20.7c-14.1-8.2-25.6-30.6-25.6-50.2s11.4-28.8,25.6-20.7  C496.5,301.2,507.9,323.6,507.9,343.2z"
   id="path34" />
<linearGradient
   id="SVGID_5_"
   gradientUnits="userSpaceOnUse"
   x1="629.4028"
   y1="368.5846"
   x2="403.3918"
   y2="368.6098"
   gradientTransform="matrix(1 0 0 -1 0 1116)">
	<stop
   offset="0"
   style="stop-color:#FFFFFF"
   id="stop36" />
	<stop
   offset="1"
   style="stop-color:#FFFFFF;stop-opacity:0"
   id="stop38" />
</linearGradient>
<path
   class="st6"
   d="M592.1,842.4c0-7.2-5.1-16-11.3-19.6l-89-51.4v-74.5l-88.4-51c-6.3-3.6-11.3-0.7-11.3,6.5s5.1,16,11.3,19.6  l65.8,38v74.5l111.7,64.4C587.1,852.5,592.1,849.6,592.1,842.4z"
   id="path41" />
<linearGradient
   id="SVGID_6_"
   gradientUnits="userSpaceOnUse"
   x1="325.9584"
   y1="207.9244"
   x2="428.7484"
   y2="385.7604"
   gradientTransform="matrix(1 0 0 -1 0 1116)">
	<stop
   offset="0"
   style="stop-color:#FFFFFF"
   id="stop43" />
	<stop
   offset="1"
   style="stop-color:#FFFFFF;stop-opacity:0"
   id="stop45" />
</linearGradient>
<path
   class="st7"
   d="M377.3,950.8c-6.3-3.6-11.3-12.4-11.3-19.6v-237c0-7.2,5.1-10.1,11.3-6.5c6.3,3.6,11.3,12.4,11.3,19.6v237  C388.6,951.5,383.5,954.4,377.3,950.8z"
   id="path48" />
<path
   class="st5"
   d="M605.9,851c0,19.8-11.6,29.2-25.9,20.9c-14.3-8.2-25.9-31-25.9-50.8s11.6-29.2,25.9-20.9  C594.3,808.4,605.9,831.2,605.9,851z"
   id="path50" />
<linearGradient
   id="SVGID_7_"
   gradientUnits="userSpaceOnUse"
   x1="232.2329"
   y1="636.2282"
   x2="87.7044"
   y2="385.8322"
   gradientTransform="matrix(1 0 0 -1 0 1116)">
	<stop
   offset="0"
   style="stop-color:#FFFFFF"
   id="stop52" />
	<stop
   offset="1"
   style="stop-color:#FFFFFF;stop-opacity:0"
   id="stop54" />
</linearGradient>
<path
   class="st8"
   d="M52,453.2l162.8,94v301.6L52,754.8V453.2z"
   id="path57" />
<path
   class="st9"
   d="M77.8,645l97,56v11.9l-97-56V645z"
   id="path59" />
<path
   class="st9"
   d="M87.9,674.3l76.9,44.4v11.9l-76.9-44.4V674.3z"
   id="path61" />
<path
   class="st3"
   d="M114.1,728L0.9,662.6v33.7l113.3,65.4L114.1,728z"
   id="path63" />
<path
   class="st10"
   d="M168.7,577.3l-25.3,20l-17-21.8l-22.2,19.2l-8.8-6.4l32.7-27.5l16.6,21.8L163,569L168.7,577.3z"
   id="path65" />
<path
   class="st3"
   d="M187.7,576.8c0,11.3-6.6,16.6-14.7,11.9c-8.1-4.7-14.7-17.6-14.7-28.9c0-11.3,6.6-16.6,14.7-11.9  C181.1,552.6,187.7,565.6,187.7,576.8z"
   id="path67" />
<path
   class="st3"
   d="M111.9,598.6c0,11.3-6.6,16.6-14.7,11.9c-8.1-4.7-14.7-17.6-14.7-28.9c0-11.3,6.6-16.6,14.7-11.9  C105.3,574.4,111.9,587.3,111.9,598.6z"
   id="path69" />
<linearGradient
   id="SVGID_8_"
   gradientUnits="userSpaceOnUse"
   x1="551.5587"
   y1="500.2469"
   x2="516.6413"
   y2="439.7531"
   gradientTransform="matrix(1 0 0 -1 0 1116)">
	<stop
   offset="0"
   style="stop-color:#FFFFFF"
   id="stop71" />
	<stop
   offset="1"
   style="stop-color:#FFFFFF;stop-opacity:0"
   id="stop73" />
</linearGradient>
<path
   class="st11"
   d="M611.5,650.4L456.7,561v80.6L611.5,731V650.4z"
   id="path76" />
<path
   class="st9"
   d="M496.3,603.4l46.6,26.9v9.7l-46.6-27L496.3,603.4L496.3,603.4z"
   id="path78" />
<path
   class="st9"
   d="M496.4,622.8l99.2,57.2v9.8l-99.2-57.2L496.4,622.8z"
   id="path80" />
<path
   class="st5"
   d="M488.2,606.2c0,6.6-3.9,9.8-8.8,7s-8.8-10.5-8.8-17.1s3.9-9.8,8.8-7C484.3,591.9,488.2,599.6,488.2,606.2z"
   id="path82" />
<linearGradient
   id="SVGID_9_"
   gradientUnits="userSpaceOnUse"
   x1="154.3588"
   y1="746.7471"
   x2="119.4412"
   y2="686.2529"
   gradientTransform="matrix(1 0 0 -1 0 1116)">
	<stop
   offset="0"
   style="stop-color:#FFFFFF"
   id="stop84" />
	<stop
   offset="1"
   style="stop-color:#FFFFFF;stop-opacity:0"
   id="stop86" />
</linearGradient>
<path
   class="st12"
   d="M214.3,403.9L59.5,314.5v80.6l154.8,89.4V403.9z"
   id="path89" />
<path
   class="st9"
   d="M99.1,356.9l46.6,26.9v9.7l-46.6-26.9V356.9z"
   id="path91" />
<path
   class="st9"
   d="M99.2,376.3l99.2,57.2v9.8l-99.2-57.2V376.3z"
   id="path93" />
<path
   class="st5"
   d="M91,359.7c0,6.6-3.9,9.8-8.8,7s-8.8-10.5-8.8-17.1s3.9-9.8,8.8-7C87,345.4,91,353.1,91,359.7z"
   id="path95" />
<linearGradient
   id="SVGID_10_"
   gradientUnits="userSpaceOnUse"
   x1="367.6572"
   y1="647.0664"
   x2="338.7122"
   y2="482.2365"
   gradientTransform="matrix(1 0 0 -1 0 1116)">
	<stop
   offset="0"
   style="stop-color:#FFFFFF"
   id="stop97" />
	<stop
   offset="1"
   style="stop-color:#FFFFFF;stop-opacity:0"
   id="stop99" />
</linearGradient>
<path
   class="st13"
   d="m 406.57881,591.21473 c 0,49 -28.7,72.2 -64,51.8 -35.4,-20.4 -64,-76.7 -64,-125.7 0,-49 28.7,-72.2 64,-51.8 35.4,20.4 64,76.7 64,125.7 z"
   id="path102" />

<path
   d="m 371.49421,564.9107 c -0.53592,-0.81736 -1.26263,-1.48924 -2.02034,-1.86809 l -69.90916,-34.95459 c -1.27349,-0.63675 -1.91102,0.62423 -1.01018,1.99791 l 13.81393,21.06552 c 0.53593,0.81737 1.26263,1.48924 2.02035,1.86809 l 69.90916,34.95459 c 1.27349,0.63675 1.91102,-0.62422 1.01017,-1.99793 z"
   fill="url(#paint0_linear)"
   id="path4"
   style="fill:url(#paint0_linear);stroke-width:1.75195" /><path
   d="m 312.36846,561.70676 c 0.53593,-0.27883 1.26263,-0.22259 2.02035,0.15624 l 69.90916,34.95459 c 1.27349,0.63675 1.91102,2.52771 1.01017,2.99617 l -13.81393,7.18377 c -0.53592,0.27883 -1.26263,0.22259 -2.02034,-0.15624 L 299.56471,571.8867 c -1.27349,-0.63675 -1.91102,-2.52753 -1.01018,-2.9962 z"
   fill="url(#paint1_linear)"
   id="path6"
   style="fill:url(#linearGradient969);stroke-width:1.75195" /><path
   d="m 312.36846,509.06461 c 0.53593,-0.27882 1.26263,-0.22259 2.02035,0.15624 l 69.90916,34.95459 c 1.27349,0.63675 1.91102,2.52753 1.01017,2.99617 l -13.81393,7.18377 c -0.53592,0.27883 -1.26263,0.22259 -2.02034,-0.15624 l -69.90916,-34.95459 c -1.27349,-0.63675 -1.91102,-2.5277 -1.01018,-2.9962 z"
   fill="url(#paint2_linear)"
   id="path8"
   style="fill:url(#linearGradient971);stroke-width:1.75195" /><path
   class="st13"
   d="m 401.07529,601.35447 c 0,49 -28.7,72.2 -64,51.8 -35.39999,-20.4 -64,-76.7 -64,-125.7 0,-49 28.7,-72.2 64,-51.8 35.4,20.4 64,76.7 64,125.7 z"
   id="path102-6"
   style="opacity:0;fill:#00ffa3;fill-opacity:0.501961;filter:url(#filter1044);enable-background:new" /></svg>
