<?xml version="1.0" encoding="utf-8"?>
<!-- Generator: Adobe Illustrator 22.1.0, SVG Export Plug-In . SVG Version: 6.00 Build 0)  -->
<svg version="1.1" id="illustration" xmlns="http://www.w3.org/2000/svg" xmlns:xlink="http://www.w3.org/1999/xlink" x="0px" enable-background="new 0 0 512 512"
	 y="0px" viewBox="0 0 612 953" 
	 xml:space="preserve">
<style type="text/css">
	.st0{opacity:0.3;fill:url(#SVGID_1_);enable-background:new    ;}
	.st1{opacity:0.3;fill:url(#SVGID_2_);enable-background:new    ;}
	.st2{opacity:0.3;fill:url(#SVGID_3_);enable-background:new    ;}
	.st3{fill:#18a2d9;}
	.st4{opacity:0.3;fill:url(#SVGID_4_);enable-background:new    ;}
	.st5{fill:#00ffa3;}
	.st6{opacity:0.3;fill:url(#SVGID_5_);enable-background:new    ;}
	.st7{opacity:0.3;fill:url(#SVGID_6_);enable-background:new    ;}
	.st8{opacity:0.3;fill:url(#SVGID_7_);enable-background:new    ;}
	.st9{opacity:0.15;fill:#FFFFFF;enable-background:new    ;}
	.st10{opacity:0.2;fill:#FFFFFF;enable-background:new    ;}
	.st11{opacity:0.2;fill:url(#SVGID_8_);enable-background:new    ;}
	.st12{opacity:0.2;fill:url(#SVGID_9_);enable-background:new    ;}
	.st13{opacity:0.4;fill:#18a2d9;enable-background:new    ;}
	.st14{opacity:0.5;fill:#00ffa3;enable-background:new    ;}
</style>
<linearGradient id="SVGID_1_" gradientUnits="userSpaceOnUse" x1="350.6691" y1="1035.2568" x2="186.5801" y2="750.9727" gradientTransform="matrix(1 0 0 -1 0 1116)">
	<stop  offset="0" style="stop-color:#FFFFFF"/>
	<stop  offset="1" style="stop-color:#FFFFFF;stop-opacity:0"/>
</linearGradient>
<path class="st0" d="M237.1,2.1c6.3,3.6,11.3,12.4,11.3,19.6v193.2l57.3,33.1v199.3c0,7.2-5.1,10.1-11.3,6.5
	c-6.3-3.6-11.3-12.4-11.3-19.6V261l-57.4-33V8.6C225.7,1.4,230.8-1.5,237.1,2.1z"/>
<linearGradient id="SVGID_2_" gradientUnits="userSpaceOnUse" x1="231.9801" y1="308.7277" x2="335.7061" y2="488.4328" gradientTransform="matrix(1 0 0 -1 0 1116)">
	<stop  offset="0" style="stop-color:#FFFFFF"/>
	<stop  offset="1" style="stop-color:#FFFFFF;stop-opacity:0"/>
</linearGradient>
<path class="st1" d="M268.3,841.3c6.3,3.6,11.3,0.7,11.3-6.5V690l57.3,33.1v-94.8c0-7.2-5.1-16-11.3-19.6
	c-6.3-3.6-11.3-0.7-11.3,6.5v68.7L257,650.8v170.9C257,828.9,262.1,837.7,268.3,841.3z"/>
<linearGradient id="SVGID_3_" gradientUnits="userSpaceOnUse" x1="427.5634" y1="917.9923" x2="285.2375" y2="671.4093" gradientTransform="matrix(1 0 0 -1 0 1116)">
	<stop  offset="0" style="stop-color:#FFFFFF"/>
	<stop  offset="1" style="stop-color:#FFFFFF;stop-opacity:0"/>
</linearGradient>
<path class="st2" d="M356.4,143.9c6.3,3.6,11.3,12.4,11.3,19.6v328.7c0,7.2-5.1,10.1-11.3,6.5c-6.3-3.6-11.3-12.4-11.3-19.6V150.4
	C345.1,143.2,350.2,140.3,356.4,143.9z"/>
<path class="st3" d="M292.2,824.8c0,19.8-11.6,29.2-25.9,20.9c-14.3-8.2-25.9-31-25.9-50.8s11.6-29.2,25.9-20.9
	C280.6,782.2,292.2,805,292.2,824.8z"/>
<linearGradient id="SVGID_4_" gradientUnits="userSpaceOnUse" x1="543.1555" y1="854.8711" x2="407.5745" y2="619.9781" gradientTransform="matrix(1 0 0 -1 0 1116)">
	<stop  offset="0" style="stop-color:#FFFFFF"/>
	<stop  offset="1" style="stop-color:#FFFFFF;stop-opacity:0"/>
</linearGradient>
<path class="st4" d="M482.5,308.7c-6.3-3.6-11.3-0.7-11.3,6.5v97.6l-57.3-33.1v119.9c0,7.2,5.1,16,11.3,19.6
	c6.3,3.6,11.3,0.7,11.3-6.5v-93.8l57.3,33.1V328.3C493.8,321.1,488.7,312.3,482.5,308.7z"/>
<path class="st5" d="M507.9,343.2c0,19.6-11.5,28.8-25.6,20.7c-14.1-8.2-25.6-30.6-25.6-50.2s11.4-28.8,25.6-20.7
	C496.5,301.2,507.9,323.6,507.9,343.2z"/>
<linearGradient id="SVGID_5_" gradientUnits="userSpaceOnUse" x1="629.4028" y1="368.5846" x2="403.3918" y2="368.6098" gradientTransform="matrix(1 0 0 -1 0 1116)">
	<stop  offset="0" style="stop-color:#FFFFFF"/>
	<stop  offset="1" style="stop-color:#FFFFFF;stop-opacity:0"/>
</linearGradient>
<path class="st6" d="M592.1,842.4c0-7.2-5.1-16-11.3-19.6l-89-51.4v-74.5l-88.4-51c-6.3-3.6-11.3-0.7-11.3,6.5s5.1,16,11.3,19.6
	l65.8,38v74.5l111.7,64.4C587.1,852.5,592.1,849.6,592.1,842.4z"/>
<linearGradient id="SVGID_6_" gradientUnits="userSpaceOnUse" x1="325.9584" y1="207.9244" x2="428.7484" y2="385.7604" gradientTransform="matrix(1 0 0 -1 0 1116)">
	<stop  offset="0" style="stop-color:#FFFFFF"/>
	<stop  offset="1" style="stop-color:#FFFFFF;stop-opacity:0"/>
</linearGradient>
<path class="st7" d="M377.3,950.8c-6.3-3.6-11.3-12.4-11.3-19.6v-237c0-7.2,5.1-10.1,11.3-6.5c6.3,3.6,11.3,12.4,11.3,19.6v237
	C388.6,951.5,383.5,954.4,377.3,950.8z"/>
<path class="st5" d="M605.9,851c0,19.8-11.6,29.2-25.9,20.9c-14.3-8.2-25.9-31-25.9-50.8s11.6-29.2,25.9-20.9
	C594.3,808.4,605.9,831.2,605.9,851z"/>
<linearGradient id="SVGID_7_" gradientUnits="userSpaceOnUse" x1="232.2329" y1="636.2282" x2="87.7044" y2="385.8322" gradientTransform="matrix(1 0 0 -1 0 1116)">
	<stop  offset="0" style="stop-color:#FFFFFF"/>
	<stop  offset="1" style="stop-color:#FFFFFF;stop-opacity:0"/>
</linearGradient>
<path class="st8" d="M52,453.2l162.8,94v301.6L52,754.8V453.2z"/>
<path class="st9" d="M77.8,645l97,56v11.9l-97-56V645z"/>
<path class="st9" d="M87.9,674.3l76.9,44.4v11.9l-76.9-44.4V674.3z"/>
<path class="st3" d="M114.1,728L0.9,662.6v33.7l113.3,65.4L114.1,728z"/>
<path class="st10" d="M168.7,577.3l-25.3,20l-17-21.8l-22.2,19.2l-8.8-6.4l32.7-27.5l16.6,21.8L163,569L168.7,577.3z"/>
<path class="st3" d="M187.7,576.8c0,11.3-6.6,16.6-14.7,11.9c-8.1-4.7-14.7-17.6-14.7-28.9c0-11.3,6.6-16.6,14.7-11.9
	C181.1,552.6,187.7,565.6,187.7,576.8z"/>
<path class="st3" d="M111.9,598.6c0,11.3-6.6,16.6-14.7,11.9c-8.1-4.7-14.7-17.6-14.7-28.9c0-11.3,6.6-16.6,14.7-11.9
	C105.3,574.4,111.9,587.3,111.9,598.6z"/>
<linearGradient id="SVGID_8_" gradientUnits="userSpaceOnUse" x1="551.5587" y1="500.2469" x2="516.6413" y2="439.7531" gradientTransform="matrix(1 0 0 -1 0 1116)">
	<stop  offset="0" style="stop-color:#FFFFFF"/>
	<stop  offset="1" style="stop-color:#FFFFFF;stop-opacity:0"/>
</linearGradient>
<path class="st11" d="M611.5,650.4L456.7,561v80.6L611.5,731V650.4z"/>
<path class="st9" d="M496.3,603.4l46.6,26.9v9.7l-46.6-27L496.3,603.4L496.3,603.4z"/>
<path class="st9" d="M496.4,622.8l99.2,57.2v9.8l-99.2-57.2L496.4,622.8z"/>
<path class="st5" d="M488.2,606.2c0,6.6-3.9,9.8-8.8,7s-8.8-10.5-8.8-17.1s3.9-9.8,8.8-7C484.3,591.9,488.2,599.6,488.2,606.2z"/>
<linearGradient id="SVGID_9_" gradientUnits="userSpaceOnUse" x1="154.3588" y1="746.7471" x2="119.4412" y2="686.2529" gradientTransform="matrix(1 0 0 -1 0 1116)">
	<stop  offset="0" style="stop-color:#FFFFFF"/>
	<stop  offset="1" style="stop-color:#FFFFFF;stop-opacity:0"/>
</linearGradient>
<path class="st12" d="M214.3,403.9L59.5,314.5v80.6l154.8,89.4V403.9z"/>
<path class="st9" d="M99.1,356.9l46.6,26.9v9.7l-46.6-26.9V356.9z"/>
<path class="st9" d="M99.2,376.3l99.2,57.2v9.8l-99.2-57.2V376.3z"/>
<path class="st5" d="M91,359.7c0,6.6-3.9,9.8-8.8,7s-8.8-10.5-8.8-17.1s3.9-9.8,8.8-7C87,345.4,91,353.1,91,359.7z"/>
<linearGradient id="SVGID_10_" gradientUnits="userSpaceOnUse" x1="367.6572" y1="647.0664" x2="338.7122" y2="482.2365" gradientTransform="matrix(1 0 0 -1 0 1116)">
	<stop  offset="0" style="stop-color:#FFFFFF"/>
	<stop  offset="1" style="stop-color:#FFFFFF;stop-opacity:0"/>
</linearGradient>
<path class="st13" d="M418.8,579.1c0,49-28.7,72.2-64,51.8c-35.4-20.4-64-76.7-64-125.7s28.7-72.2,64-51.8
	C390.2,473.8,418.8,530.1,418.8,579.1z"/>
<g>
	<path class="st14" d="M329.6,554.8c1.7-0.5,2.6-2.3,2.6-5.4c0-3.2-0.9-6-2.6-8.3c-1.8-2.3-4.4-4.5-7.8-6.4
		c-1.1-0.6-2.3-1.3-3.6-1.9c-1.3-0.7-2.4-1.3-3.4-1.7v17.2l6.3,3.6C325.1,554.2,327.9,555.1,329.6,554.8z"/>
	<path class="st14" d="M322.8,566.6l-8.1-4.7v20.6c1,0.7,2,1.4,3,2c1.1,0.7,2.3,1.4,3.6,2.2c3.9,2.2,7,3.3,9.4,3.1
		c2.4-0.1,3.6-2.3,3.6-6.4c0-3.6-1-6.8-3-9.5S326.5,568.7,322.8,566.6z"/>
	<path class="st14" d="M325,473.4c-35.4-20.4-64,2.8-64,51.8s28.7,105.3,64,125.7c35.4,20.4,64-2.8,64-51.8S360.3,493.8,325,473.4z
		 M340.8,606.4c-3.4,1.3-8.1,0.6-14.1-2.1v12l-12.3-7.1v-11.9c-0.9-0.5-1.7-1.1-2.6-1.7c-3.1-2.1-6.3-4.6-9.7-7.5v-77.4
		c2.6,0.8,5.5,2,8.7,3.5c1.2,0.5,2.4,1.1,3.6,1.7V504l12.3,7.1l-0.1,12.2c1,0.8,2,1.5,2.9,2.3c3.1,2.5,5.8,5.3,8,8.3s3.9,6.4,5.1,10
		c1.3,3.6,1.9,7.5,1.9,11.7c0,6.4-2.2,10.2-6.6,11.3c3.7,4,6.2,8,7.5,12.1c1.3,4,2,8.2,2,12.3C347.4,599.7,345.2,604.7,340.8,606.4z
		"/>
</g>
</svg>
