<svg enable-background="new 0 0 159.6 48.7" viewBox="0 0 159.6 48.7" xmlns="http://www.w3.org/2000/svg" xmlns:xlink="http://www.w3.org/1999/xlink"><linearGradient id="a"><stop offset="0" stop-color="#05aac5"/><stop offset="1" stop-color="#71e0ec"/></linearGradient><linearGradient id="b" gradientTransform="matrix(1 0 0 -1 0 47.8898)" gradientUnits="userSpaceOnUse" x1="21.4506" x2="21.4506" xlink:href="#a" y1="7.7898" y2="42.2524"/><linearGradient id="c" gradientTransform="matrix(1 0 0 -1 0 47.8898)" gradientUnits="userSpaceOnUse" x1="21.55" x2="21.55" xlink:href="#a" y1="3.4898" y2="45.0189"/><linearGradient id="d" gradientTransform="matrix(1 0 0 -1 0 47.8898)" gradientUnits="userSpaceOnUse" x1="21.5" x2="21.5" xlink:href="#a" y1="-.8102" y2="47.8656"/><path d="m21.5 40.1c-7.4 0-13.4-6-13.4-13.4 0-7.2 12.1-19.9 12.6-20.4l.6-.7.6.7c.5.5 12.9 13.2 12.9 20.4.1 7.4-5.9 13.4-13.3 13.4zm-.1-31.9c-1.1 1.2-3.3 3.6-5.5 6.6-3.9 5.2-6 9.3-6 11.9 0 6.4 5.2 11.6 11.6 11.6s11.6-5.2 11.6-11.6c0-2.6-2.1-6.7-6.1-11.9-2.2-2.9-4.5-5.4-5.6-6.6z" fill="url(#b)"/><path d="m21.5 44.4c-9.8 0-17.7-7.9-17.7-17.7 0-9.5 13.3-22.8 13.9-23.4.4-.3.9-.3 1.3 0 .3.4.3.9 0 1.3-.2.1-13.4 13.3-13.4 22.1s7.1 15.9 15.9 15.9 15.9-7.1 15.9-15.9c0-3.6-2.3-8.6-6.7-14.4-3.4-4.5-6.8-7.9-6.8-7.9-.4-.3-.4-.9 0-1.3.3-.4.9-.4 1.3 0 .6.6 14.1 14.1 14.1 23.6-.1 9.8-8 17.7-17.8 17.7z" fill="url(#c)"/><path d="m21.5 48.7c-11.8 0-21.5-9.7-21.5-21.5 0-4.9 2.5-10.9 7.3-17.9 3.6-5.1 7.1-8.8 7.3-9 .3-.4.9-.4 1.3 0 .4.3.4.9 0 1.3 0 0-3.6 3.7-7.1 8.8-4.6 6.6-7 12.4-7 16.9 0 10.9 8.9 19.7 19.7 19.7s19.7-9 19.7-19.8c0-4.5-2.4-10.3-7-16.9-3.5-5-7.1-8.7-7.1-8.8-.3-.4-.3-.9 0-1.3.4-.3.9-.3 1.3 0 .5.7 14.6 15.3 14.6 27 0 11.8-9.6 21.5-21.5 21.5z" fill="url(#d)"/><g fill="#fff"><path d="m52.3 31.5 4.3-.4c.3 1.4.8 2.5 1.6 3.2s1.9 1 3.2 1c1.4 0 2.5-.3 3.2-.9s1.1-1.3 1.1-2.1c0-.5-.2-1-.5-1.3-.3-.4-.8-.7-1.6-.9-.5-.2-1.7-.5-3.5-1-2.4-.6-4-1.3-5-2.2-1.3-1.2-2-2.7-2-4.4 0-1.1.3-2.2.9-3.1s1.5-1.7 2.7-2.2 2.6-.8 4.3-.8c2.8 0 4.8.6 6.2 1.8s2.1 2.8 2.2 4.8l-4.4.2c-.2-1.1-.6-1.9-1.2-2.4s-1.5-.8-2.8-.8-2.3.3-3 .8c-.5.3-.7.8-.7 1.4 0 .5.2 1 .7 1.3.6.5 1.9 1 4.1 1.5s3.7 1 4.8 1.6c1 .5 1.8 1.3 2.4 2.2s.9 2.1.9 3.5c0 1.3-.3 2.4-1 3.5s-1.7 1.9-3 2.4-2.9.8-4.8.8c-2.8 0-4.9-.6-6.4-1.9s-2.4-3.1-2.7-5.6z"/><path d="m73.8 38.7v-22h16.2v3.7h-11.8v4.9h11v3.7h-11v6h12.2v3.7z"/><path d="m94.3 38.7v-22h9.3c2.3 0 4 .2 5.1.6s1.9 1.1 2.5 2.1 1 2.2 1 3.5c0 1.6-.5 3-1.5 4.1s-2.4 1.7-4.3 2c1 .6 1.7 1.2 2.4 1.8.6.7 1.5 1.9 2.5 3.6l2.7 4.3h-5.3l-3.2-4.8c-1.1-1.7-1.9-2.8-2.3-3.2s-.9-.7-1.3-.9c-.5-.2-1.2-.2-2.2-.2h-.9v9.1zm4.4-12.7h3.3c2.1 0 3.4-.1 4-.3.5-.2.9-.5 1.2-.9s.4-1 .4-1.6c0-.7-.2-1.3-.6-1.8s-.9-.7-1.7-.9c-.4 0-1.4-.1-3.2-.1h-3.5z"/><path d="m116.3 16.7h4.4v11.9c0 1.9.1 3.1.2 3.7.2.9.6 1.6 1.4 2.2.7.5 1.7.8 2.9.8 1.3 0 2.2-.3 2.8-.8s1-1.1 1.2-1.9c.1-.7.2-2 .2-3.7v-12.2h4.4v11.5c0 2.6-.1 4.5-.4 5.6-.2 1.1-.7 2-1.3 2.8-.6.7-1.5 1.3-2.6 1.8s-2.5.7-4.2.7c-2.1 0-3.7-.2-4.8-.7s-1.9-1.1-2.6-1.9c-.6-.8-1-1.6-1.2-2.4-.3-1.3-.4-3.1-.4-5.6z"/><path d="m138.4 38.7v-22h6.6l4 14.9 3.9-14.9h6.6v21.9h-4.1v-17.2l-4.3 17.3h-4.3l-4.3-17.3v17.3z"/></g></svg>