
<svg version="1.0" xmlns="http://www.w3.org/2000/svg"
     width="400.000000pt" height="160.000000pt" viewBox="0 0 400.000000 160.000000"
     preserveAspectRatio="xMidYMid meet">
    <g transform="translate(0.000000,160.000000) scale(0.100000,-0.100000)"
       fill="#000000" stroke="none">
        <path d="M3185 1583 c-302 -26 -593 -143 -728 -293 -188 -209 -151 -486 86
         -654 135 -95 260 -140 493 -176 261 -41 479 -37 704 12 117 25 123 28 155 82
         20 35 105 230 105 243 0 1 -6 3 -14 3 -8 0 -35 -26 -59 -58 -68 -88 -168 -176
         -240 -212 -184 -90 -484 -73 -717 41 -89 44 -117 64 -185 133 -125 126 -168
         238 -145 376 16 94 57 174 126 250 137 148 308 211 569 211 171 0 293 -22 364
         -64 82 -49 160 -146 185 -229 3 -10 15 -18 26 -18 20 0 20 4 18 138 l-3 137
         -125 31 c-176 45 -424 64 -615 47z"/>
        <path d="M50 1557 c0 -9 30 -16 98 -24 141 -16 182 -42 203 -130 5 -21 9 -204
         9 -408 -1 -333 -2 -373 -18 -405 -23 -46 -105 -87 -187 -95 -83 -8 -105 -14
         -105 -25 0 -6 154 -10 425 -10 247 0 425 4 425 9 0 5 -24 12 -52 16 -157 19
         -209 43 -243 110 -19 38 -20 58 -18 427 1 381 2 388 24 427 34 61 73 75 204
         76 102 0 113 -2 157 -28 26 -15 70 -53 98 -85 28 -31 188 -268 355 -527 167
         -259 310 -471 319 -473 14 -3 73 83 518 758 182 277 266 353 403 367 37 4 55
         10 55 19 0 12 -62 14 -355 14 -309 0 -355 -2 -355 -15 0 -8 3 -15 8 -15 60 -2
         200 -24 222 -35 42 -22 64 -58 55 -92 -3 -16 -34 -75 -67 -133 -69 -119 -390
         -610 -399 -610 -14 0 -408 610 -463 717 -44 86 10 138 159 151 39 4 69 11 68
         17 -2 7 -270 11 -773 13 -628 2 -770 0 -770 -11z"/>
        <path d="M317 123 c-4 -3 -7 -33 -7 -65 l0 -58 33 1 c30 2 30 2 5 6 -22 3 -28
         10 -28 28 0 18 6 25 28 28 l27 4 -27 2 c-23 1 -28 6 -28 25 0 19 6 26 28 29
         l27 4 -26 2 c-14 0 -29 -2 -32 -6z"/>
        <path d="M772 123 c13 -3 18 -18 21 -66 l3 -62 2 62 c2 49 5 62 20 66 9 2 -1
         4 -23 4 -22 0 -32 -2 -23 -4z"/>
        <path d="M1213 123 c-9 -3 -12 -24 -11 -61 l1 -57 6 55 c5 46 9 55 27 58 25 4
         49 -22 40 -43 -3 -8 -15 -15 -26 -15 -20 0 -20 0 1 -30 13 -16 25 -28 27 -25
         3 2 -1 11 -8 20 -10 13 -10 19 4 33 20 23 20 36 0 56 -15 16 -37 19 -61 9z"/>
        <path d="M1443 123 c-9 -3 -13 -26 -13 -64 l0 -59 38 1 c36 1 36 2 7 8 -21 4
         -31 13 -33 28 -3 18 3 22 30 26 l33 4 -33 1 c-29 2 -33 5 -30 24 2 16 12 25
         33 29 26 6 27 7 5 7 -14 0 -31 -2 -37 -5z"/>
        <path d="M1842 114 c-18 -12 -22 -24 -20 -52 4 -48 42 -72 83 -54 15 7 25 16
         21 19 -3 4 -12 1 -18 -5 -17 -17 -42 -15 -61 6 -23 25 -21 55 4 77 17 16 25
         17 52 7 29 -10 30 -10 13 3 -25 19 -46 19 -74 -1z"/>
        <path d="M2347 123 c-4 -3 -6 -31 -6 -62 1 -31 4 -46 6 -33 3 13 12 22 22 22
         17 0 51 29 51 43 0 24 -56 47 -73 30z m53 -18 c16 -19 -3 -45 -31 -45 -14 0
         -19 7 -19 30 0 23 5 30 19 30 10 0 24 -7 31 -15z"/>
        <path d="M2722 123 c13 -3 18 -18 21 -66 l3 -62 2 62 c2 49 5 62 20 66 9 2 -1
         4 -23 4 -22 0 -32 -2 -23 -4z"/>
        <path d="M3802 107 c-27 -29 -28 -61 -2 -87 26 -26 64 -26 90 0 30 30 24 40
         -22 38 l-43 -1 38 -4 c38 -4 38 -5 21 -24 -33 -36 -94 -12 -94 38 0 38 67 72
         85 43 3 -5 12 -10 18 -10 21 1 -26 30 -48 30 -12 0 -31 -10 -43 -23z"/>
        <path d="M61 117 c-2 -14 41 -107 49 -107 4 0 16 19 25 43 27 67 29 73 18 62
         -6 -5 -16 -27 -23 -47 -6 -21 -15 -38 -19 -38 -4 0 -17 21 -28 48 -12 26 -21
         43 -22 39z"/>
        <path d="M523 63 c0 -53 1 -54 4 -10 2 26 7 47 11 47 4 0 20 -20 35 -45 16
         -25 33 -47 38 -51 5 -3 8 22 7 58 l-1 63 -6 -50 -6 -50 -30 47 c-16 27 -35 48
         -41 48 -6 0 -11 -23 -11 -57z"/>
        <path d="M974 71 c1 -40 6 -57 19 -65 31 -20 52 4 53 60 l1 49 -4 -48 c-7 -82
         -59 -74 -66 11 -4 44 -4 43 -3 -7z"/>
        <path d="M2100 65 c-13 -31 -20 -58 -18 -61 3 -3 8 7 12 21 9 37 60 36 80 -2
         24 -43 19 -19 -8 42 -14 30 -29 55 -34 55 -5 0 -20 -25 -32 -55z m44 -3 c-25
         -6 -32 2 -22 28 l9 25 14 -25 c12 -21 12 -25 -1 -28z"/>
        <path d="M2563 60 c0 -36 2 -50 4 -32 2 17 2 47 0 65 -2 17 -4 3 -4 -33z"/>
        <path d="M2925 63 c-14 -31 -23 -58 -20 -61 2 -3 9 7 14 22 8 20 17 26 41 26
         16 0 30 -4 30 -8 0 -5 7 -17 15 -28 9 -11 6 1 -6 31 -24 56 -35 71 -26 38 4
         -18 1 -23 -14 -23 -23 0 -25 23 -3 44 8 9 11 16 5 16 -6 0 -23 -25 -36 -57z"/>
        <path d="M3162 63 l-2 -63 33 1 c29 2 30 2 5 6 -25 4 -27 8 -31 61 l-3 57 -2
         -62z"/>
        <path d="M3566 104 c-10 -25 -6 -31 5 -10 9 15 13 16 20 5 17 -26 10 -42 -15
         -37 -18 4 -27 -1 -35 -20 -7 -13 -9 -27 -6 -30 3 -4 8 4 12 16 8 34 58 30 77
         -5 24 -43 19 -19 -8 42 -25 56 -39 67 -50 39z"/>
    </g>
</svg>

