<svg version="1.0" xmlns="http://www.w3.org/2000/svg"
     width="400.000000pt" height="160.000000pt" viewBox="0 0 400.000000 160.000000"
     preserveAspectRatio="xMidYMid meet">
    <metadata>
        Created by potrace 1.16, written by Peter Selinger 2001-2019
    </metadata>
    <g transform="translate(0.000000,160.000000) scale(0.100000,-0.100000)"
       fill="#000000" stroke="none">
        <path d="M3185 1583 c-302 -26 -593 -143 -728 -293 -188 -209 -151 -486 86
-654 135 -95 260 -140 493 -176 261 -41 479 -37 704 12 117 25 123 28 155 82
20 35 105 230 105 243 0 1 -6 3 -14 3 -8 0 -35 -26 -59 -58 -68 -88 -168 -176
-240 -212 -184 -90 -484 -73 -717 41 -89 44 -117 64 -185 133 -125 126 -168
238 -145 376 16 94 57 174 126 250 137 148 308 211 569 211 171 0 293 -22 364
-64 82 -49 160 -146 185 -229 3 -10 15 -18 26 -18 20 0 20 4 18 138 l-3 137
-125 31 c-176 45 -424 64 -615 47z"/>
        <path d="M50 1557 c0 -9 30 -16 98 -24 141 -16 182 -42 203 -130 5 -21 9 -204
9 -408 -1 -333 -2 -373 -18 -405 -23 -46 -105 -87 -187 -95 -83 -8 -105 -14
-105 -25 0 -6 154 -10 425 -10 247 0 425 4 425 9 0 5 -24 12 -52 16 -157 19
-209 43 -243 110 -19 38 -20 58 -18 427 1 381 2 388 24 427 34 61 73 75 204
76 102 0 113 -2 157 -28 26 -15 70 -53 98 -85 28 -31 188 -268 355 -527 167
-259 310 -471 319 -473 14 -3 73 83 518 758 182 277 266 353 403 367 37 4 55
10 55 19 0 12 -62 14 -355 14 -309 0 -355 -2 -355 -15 0 -8 3 -15 8 -15 60 -2
200 -24 222 -35 42 -22 64 -58 55 -92 -3 -16 -34 -75 -67 -133 -69 -119 -390
-610 -399 -610 -14 0 -408 610 -463 717 -44 86 10 138 159 151 39 4 69 11 68
17 -2 7 -270 11 -773 13 -628 2 -770 0 -770 -11z"/>
    </g>
</svg>